<svg xmlns="http://www.w3.org/2000/svg" xmlns:xlink="http://www.w3.org/1999/xlink" width="500" zoomAndPan="magnify" viewBox="0 0 375 374.999991" height="500" preserveAspectRatio="xMidYMid meet" version="1.0"><path fill="#a100ff" d="M 185.007812 113.765625 C 182.363281 119.980469 184.160156 127.199219 187.03125 133.316406 C 189.902344 139.421875 193.828125 145.101562 195.6875 151.589844 C 197.539062 158.078125 196.773438 165.980469 191.542969 170.253906 C 187.777344 173.328125 182.492188 173.875 177.695312 173.097656 C 172.902344 172.324219 168.382812 170.382812 163.742188 168.960938 C 146.523438 163.65625 127.210938 165.597656 111.390625 174.210938 C 106.75 176.734375 102.285156 179.933594 99.542969 184.457031 C 96.796875 188.96875 96.113281 195.019531 98.941406 199.484375 C 101.957031 204.242188 108.179688 206.09375 113.796875 205.636719 C 119.410156 205.179688 124.679688 202.867188 129.984375 200.953125 C 140.484375 197.179688 151.539062 194.9375 162.683594 194.335938 C 169.75 193.953125 178.042969 194.855469 181.808594 200.851562 C 185.953125 207.441406 181.953125 216.355469 176.164062 221.558594 C 170.6875 226.480469 163.832031 229.554688 157.199219 232.761719 C 150.5625 235.96875 143.855469 239.507812 139.035156 245.074219 C 134.210938 250.644531 131.613281 258.71875 134.367188 265.554688 C 137.859375 274.214844 148.867188 277.886719 157.945312 275.734375 C 167.023438 273.585938 174.378906 267.003906 180.578125 260.03125 C 186.773438 253.058594 192.324219 245.367188 199.769531 239.742188 C 205.851562 235.148438 214.097656 232.078125 221.054688 235.1875 C 228.445312 238.484375 231.40625 247.125 235.480469 254.125 C 239.601562 261.199219 245.917969 267.421875 253.847656 269.457031 C 261.777344 271.488281 271.300781 268.335938 274.890625 260.96875 C 278.566406 253.441406 275.210938 244.144531 269.652344 237.875 C 264.089844 231.605469 256.644531 227.382812 250.199219 222.035156 C 243.757812 216.683594 237.988281 209.402344 237.960938 201.023438 C 237.921875 193.042969 243.144531 185.921875 249.261719 180.792969 C 255.367188 175.660156 262.542969 171.878906 268.566406 166.65625 C 273.070312 162.753906 277.035156 157.777344 277.953125 151.890625 C 278.882812 146.011719 275.914062 139.238281 270.253906 137.398438 C 264.464844 135.519531 258.402344 139.085938 253.617188 142.859375 C 248.84375 146.632812 243.765625 150.996094 237.675781 150.980469 C 231.125 150.960938 225.65625 145.664062 222.722656 139.8125 C 219.777344 133.960938 218.628906 127.371094 216.160156 121.300781 C 211.792969 110.472656 192.085938 97.113281 185.007812 113.765625 Z M 185.007812 113.765625 " fill-opacity="1" fill-rule="nonzero"/><path fill="#a100ff" d="M 229.183594 139.941406 C 230.09375 141.300781 231.105469 142.640625 232.464844 143.558594 C 233.824219 144.480469 235.574219 144.9375 237.128906 144.417969 C 238.679688 143.886719 239.863281 142.210938 239.5 140.605469 C 239.054688 138.621094 236.785156 137.761719 234.980469 136.832031 C 231.460938 135.019531 228.738281 131.730469 227.597656 127.9375 C 227.214844 126.660156 226.988281 125.292969 226.230469 124.191406 C 225.472656 123.097656 223.214844 121.894531 222.738281 123.78125 C 222.355469 125.285156 223.578125 127.917969 224.042969 129.339844 C 225.253906 133.085938 226.996094 136.667969 229.183594 139.941406 Z M 229.183594 139.941406 " fill-opacity="1" fill-rule="nonzero"/><path fill="#a100ff" d="M 255.175781 218.589844 C 256.351562 219.453125 257.59375 220.292969 259.023438 220.59375 C 260.445312 220.894531 262.105469 220.519531 262.960938 219.34375 C 263.898438 218.058594 263.609375 216.199219 262.75 214.859375 C 261.894531 213.519531 260.5625 212.574219 259.324219 211.570312 C 256.808594 209.539062 249.808594 198.535156 245.296875 202.074219 C 240.394531 205.9375 252.460938 216.582031 255.175781 218.589844 Z M 255.175781 218.589844 " fill-opacity="1" fill-rule="nonzero"/><path fill="#a100ff" d="M 184.175781 265.847656 C 183.382812 268.480469 183.109375 271.796875 185.253906 273.519531 C 187.046875 274.960938 189.792969 274.515625 191.660156 273.183594 C 193.535156 271.851562 194.777344 269.839844 196.125 267.980469 C 199.835938 262.855469 204.675781 258.5625 210.1875 255.472656 C 214.164062 253.242188 219.730469 251.78125 219.6875 246.140625 C 219.59375 235.3125 197.601562 247.5625 194.109375 250.632812 C 189.527344 254.691406 185.964844 259.957031 184.175781 265.847656 Z M 184.175781 265.847656 " fill-opacity="1" fill-rule="nonzero"/><path fill="#a100ff" d="M 167.5625 206.054688 C 168.589844 208.199219 168.363281 210.785156 167.398438 212.957031 C 166.429688 215.125 164.816406 216.9375 163.085938 218.570312 C 158.144531 223.253906 152.121094 226.792969 145.625 228.84375 C 142.425781 229.84375 138.285156 230.210938 136.328125 227.484375 C 134.621094 225.125 135.714844 221.597656 137.914062 219.683594 C 140.109375 217.769531 143.070312 217.046875 145.90625 216.382812 C 148.738281 215.707031 151.703125 214.953125 153.84375 212.972656 C 156.886719 210.167969 163.066406 196.742188 167.5625 206.054688 Z M 167.5625 206.054688 " fill-opacity="1" fill-rule="nonzero"/><path fill="#a100ff" d="M 181.644531 145.363281 C 182.582031 144.789062 182.992188 143.660156 183.3125 142.601562 C 183.914062 140.605469 184.695312 137.425781 182.738281 135.859375 C 181.332031 134.738281 179.566406 135.421875 178.390625 136.550781 C 175.699219 139.140625 177.03125 148.191406 181.644531 145.363281 Z M 181.644531 145.363281 " fill-opacity="1" fill-rule="nonzero"/><path fill="#a100ff" d="M 182.027344 158.542969 C 180.976562 159.199219 179.710938 159.371094 178.515625 159.671875 C 177.324219 159.972656 176.066406 160.492188 175.4375 161.558594 C 174.542969 163.0625 175.328125 165.152344 176.785156 166.125 C 178.242188 167.101562 180.140625 167.15625 181.851562 166.808594 C 186.238281 165.933594 190.175781 162.234375 190.449219 157.769531 C 190.566406 155.78125 188.152344 148.507812 184.953125 150.460938 C 182.582031 151.890625 185.070312 156.636719 182.027344 158.542969 Z M 182.027344 158.542969 " fill-opacity="1" fill-rule="nonzero"/><path fill="#a100ff" d="M 108.746094 155.179688 C 106.960938 155.882812 105.15625 156.730469 103.878906 158.167969 C 102.601562 159.609375 101.992188 161.789062 102.859375 163.5 C 103.613281 164.988281 105.300781 165.816406 106.960938 165.988281 C 108.753906 166.179688 110.542969 165.753906 112.300781 165.324219 C 121.734375 163.019531 131.167969 160.703125 140.601562 158.386719 C 144.320312 157.476562 145.339844 154.914062 141.359375 153.628906 C 137.859375 152.5 134.03125 152 130.375 151.78125 C 123.027344 151.351562 115.589844 152.492188 108.746094 155.179688 Z M 108.746094 155.179688 " fill-opacity="1" fill-rule="nonzero"/><path fill="#ffffff" d="M 103.980469 188.949219 C 103.953125 189.332031 103.960938 189.722656 104.015625 190.097656 C 104.0625 190.480469 104.152344 190.84375 104.28125 191.210938 C 104.527344 191.921875 104.898438 192.585938 105.375 193.167969 C 105.609375 193.460938 105.855469 193.742188 106.128906 194 C 106.402344 194.253906 106.695312 194.492188 106.996094 194.71875 C 107.605469 195.15625 108.253906 195.53125 108.945312 195.8125 C 109.292969 195.949219 109.640625 196.078125 110.003906 196.167969 C 110.359375 196.257812 110.722656 196.332031 111.089844 196.378906 C 111.828125 196.476562 112.574219 196.523438 113.320312 196.488281 C 114.824219 196.421875 116.320312 196.148438 117.789062 195.765625 C 118.527344 195.574219 119.265625 195.367188 119.992188 195.136719 C 120.730469 194.917969 121.460938 194.683594 122.199219 194.445312 C 123.675781 193.980469 125.152344 193.523438 126.628906 193.078125 C 129.589844 192.183594 132.5625 191.320312 135.5625 190.542969 C 132.679688 191.683594 129.773438 192.730469 126.855469 193.753906 C 125.398438 194.273438 123.929688 194.765625 122.472656 195.265625 C 121.003906 195.757812 119.539062 196.257812 118.015625 196.652344 C 117.257812 196.84375 116.484375 197.015625 115.710938 197.132812 C 114.925781 197.253906 114.140625 197.332031 113.339844 197.34375 C 112.546875 197.359375 111.746094 197.296875 110.953125 197.160156 C 110.558594 197.097656 110.160156 197.007812 109.777344 196.886719 C 109.394531 196.769531 109.019531 196.625 108.65625 196.449219 C 107.195312 195.777344 105.910156 194.746094 105.007812 193.425781 C 104.5625 192.769531 104.214844 192.039062 104.035156 191.265625 C 103.84375 190.507812 103.824219 189.707031 103.980469 188.949219 Z M 103.980469 188.949219 " fill-opacity="1" fill-rule="nonzero"/><path fill="#ffffff" d="M 141.714844 262.855469 C 142.890625 264.050781 144.273438 265.007812 145.769531 265.699219 C 146.515625 266.046875 147.289062 266.328125 148.082031 266.546875 C 148.875 266.765625 149.679688 266.929688 150.488281 267.03125 C 152.113281 267.222656 153.761719 267.175781 155.394531 266.957031 C 156.203125 266.847656 157.015625 266.683594 157.808594 266.484375 C 158.601562 266.285156 159.394531 266.046875 160.167969 265.78125 C 160.953125 265.519531 161.71875 265.207031 162.476562 264.878906 C 162.667969 264.796875 162.847656 264.714844 163.039062 264.625 L 163.605469 264.371094 C 163.980469 264.1875 164.34375 264.003906 164.71875 263.824219 C 166.183594 263.066406 167.597656 262.199219 168.964844 261.261719 C 170.324219 260.3125 171.636719 259.285156 172.867188 258.164062 C 174.105469 257.050781 175.273438 255.855469 176.375 254.597656 C 175.425781 255.984375 174.34375 257.269531 173.175781 258.492188 C 172.882812 258.800781 172.574219 259.082031 172.273438 259.382812 C 172.128906 259.53125 171.964844 259.675781 171.808594 259.8125 L 171.34375 260.242188 C 171.023438 260.515625 170.707031 260.796875 170.378906 261.0625 L 169.886719 261.453125 L 169.640625 261.652344 L 169.382812 261.84375 C 166.6875 263.886719 163.679688 265.527344 160.46875 266.65625 C 158.867188 267.214844 157.199219 267.625 155.503906 267.832031 C 154.65625 267.933594 153.796875 267.988281 152.941406 267.96875 C 152.085938 267.960938 151.226562 267.898438 150.390625 267.75 C 148.703125 267.46875 147.0625 266.929688 145.570312 266.121094 C 144.082031 265.273438 142.734375 264.1875 141.714844 262.855469 Z M 141.714844 262.855469 " fill-opacity="1" fill-rule="nonzero"/><path fill="#ffffff" d="M 242.105469 247.214844 C 243.710938 248.992188 245.316406 250.761719 247.082031 252.328125 C 248.84375 253.898438 250.785156 255.265625 252.917969 256.183594 C 253.445312 256.414062 253.992188 256.613281 254.546875 256.777344 C 255.105469 256.941406 255.667969 257.070312 256.242188 257.160156 C 257.382812 257.351562 258.558594 257.40625 259.707031 257.304688 C 260.863281 257.207031 262.011719 256.941406 263.089844 256.503906 C 264.171875 256.066406 265.183594 255.417969 266.058594 254.597656 C 265.332031 255.554688 264.355469 256.332031 263.28125 256.90625 C 262.195312 257.480469 261 257.84375 259.789062 258.015625 C 258.566406 258.199219 257.328125 258.191406 256.105469 258.015625 C 255.496094 257.933594 254.894531 257.808594 254.292969 257.644531 C 253.699219 257.480469 253.117188 257.269531 252.550781 257.023438 L 251.722656 256.632812 C 251.449219 256.484375 251.175781 256.347656 250.910156 256.195312 C 250.648438 256.039062 250.382812 255.875 250.128906 255.71875 C 249.871094 255.546875 249.617188 255.382812 249.371094 255.210938 C 248.378906 254.5 247.457031 253.707031 246.601562 252.847656 C 244.886719 251.136719 243.417969 249.222656 242.105469 247.214844 Z M 242.105469 247.214844 " fill-opacity="1" fill-rule="nonzero"/><path fill="#ffffff" d="M 267.308594 144.554688 C 267.9375 145.820312 268.285156 147.234375 268.367188 148.664062 C 268.402344 149.382812 268.382812 150.105469 268.300781 150.816406 C 268.230469 151.527344 268.082031 152.238281 267.902344 152.929688 C 267.535156 154.324219 266.972656 155.664062 266.261719 156.910156 C 265.90625 157.539062 265.503906 158.140625 265.085938 158.726562 C 264.65625 159.300781 264.191406 159.855469 263.699219 160.382812 L 262.941406 161.148438 L 262.148438 161.878906 L 261.328125 162.5625 C 261.046875 162.78125 260.765625 163 260.480469 163.21875 C 259.332031 164.066406 258.121094 164.824219 256.871094 165.496094 C 254.382812 166.863281 251.777344 167.957031 249.144531 168.96875 C 251.621094 167.621094 254.128906 166.34375 256.507812 164.886719 C 257.691406 164.148438 258.851562 163.382812 259.953125 162.535156 L 260.765625 161.886719 L 261.546875 161.214844 L 262.304688 160.511719 L 263.035156 159.773438 C 264.910156 157.777344 266.378906 155.371094 267.226562 152.757812 C 267.4375 152.101562 267.601562 151.433594 267.71875 150.75 C 267.835938 150.078125 267.910156 149.382812 267.917969 148.691406 C 267.957031 147.289062 267.746094 145.894531 267.308594 144.554688 Z M 267.308594 144.554688 " fill-opacity="1" fill-rule="nonzero"/><path fill="#ffffff" d="M 194.886719 113.992188 C 196.582031 114.601562 198.195312 115.441406 199.707031 116.445312 C 201.21875 117.445312 202.625 118.613281 203.898438 119.90625 C 205.175781 121.203125 206.316406 122.632812 207.300781 124.15625 C 208.273438 125.6875 209.09375 127.308594 209.667969 129.023438 C 208.75 127.472656 207.773438 125.988281 206.707031 124.566406 C 205.640625 123.152344 204.484375 121.804688 203.253906 120.546875 C 202.011719 119.289062 200.691406 118.113281 199.289062 117.019531 C 197.894531 115.933594 196.417969 114.941406 194.886719 113.992188 Z M 194.886719 113.992188 " fill-opacity="1" fill-rule="nonzero"/></svg>