<svg xmlns="http://www.w3.org/2000/svg" xmlns:xlink="http://www.w3.org/1999/xlink" width="500" zoomAndPan="magnify" viewBox="0 0 375 374.999991" height="500" preserveAspectRatio="xMidYMid meet" version="1.0"><defs><clipPath id="9c2ffd4568"><path d="M 104 104 L 318.75 104 L 318.75 296.691406 L 104 296.691406 Z M 104 104 " clip-rule="nonzero"/></clipPath><clipPath id="e966a750ec"><path d="M 164 78.441406 L 172 78.441406 L 172 86 L 164 86 Z M 164 78.441406 " clip-rule="nonzero"/></clipPath></defs><g clip-path="url(#9c2ffd4568)"><path fill="#004aad" d="M 211.605469 104.292969 L 104.835938 296.550781 L 318.433594 296.550781 Z M 211.605469 104.292969 " fill-opacity="1" fill-rule="nonzero"/></g><g clip-path="url(#e966a750ec)"><path fill="#cb6ce6" d="M 167.523438 85.621094 C 166.570312 85.621094 165.683594 85.238281 165.046875 84.605469 C 164.414062 83.96875 164.03125 83.015625 164.03125 82.128906 C 164.03125 81.871094 164.03125 81.683594 164.09375 81.429688 C 164.160156 81.175781 164.222656 80.984375 164.285156 80.792969 C 164.347656 80.601562 164.476562 80.347656 164.601562 80.15625 C 164.730469 79.96875 164.855469 79.777344 165.046875 79.648438 C 165.875 78.824219 167.078125 78.441406 168.222656 78.695312 C 168.476562 78.761719 168.667969 78.824219 168.859375 78.886719 C 169.050781 78.953125 169.304688 79.078125 169.492188 79.207031 C 169.683594 79.332031 169.875 79.460938 170 79.648438 C 170.128906 79.839844 170.320312 79.96875 170.445312 80.15625 C 170.574219 80.347656 170.699219 80.539062 170.765625 80.792969 C 170.828125 80.984375 170.890625 81.238281 170.953125 81.429688 C 171.019531 81.683594 171.019531 81.871094 171.019531 82.128906 C 171.019531 83.078125 170.636719 83.96875 170 84.605469 C 169.8125 84.730469 169.683594 84.921875 169.492188 85.046875 C 169.304688 85.175781 169.113281 85.304688 168.859375 85.367188 C 168.667969 85.429688 168.414062 85.492188 168.222656 85.558594 C 167.96875 85.558594 167.777344 85.621094 167.523438 85.621094 Z M 167.523438 85.621094 " fill-opacity="1" fill-rule="nonzero"/></g><path fill="#cb6ce6" d="M 262.289062 260.03125 C 261.335938 258.316406 261.972656 256.15625 263.6875 255.269531 C 265.402344 254.316406 267.558594 254.949219 268.449219 256.664062 C 269.402344 258.378906 268.765625 260.476562 267.050781 261.429688 C 266.542969 261.746094 265.910156 261.875 265.335938 261.875 C 264.128906 261.808594 262.988281 261.175781 262.289062 260.03125 Z M 253.394531 243.960938 C 252.445312 242.246094 253.078125 240.089844 254.792969 239.199219 C 256.507812 238.246094 258.605469 238.882812 259.558594 240.597656 C 260.511719 242.3125 259.875 244.40625 258.160156 245.359375 C 257.652344 245.675781 257.015625 245.804688 256.445312 245.804688 C 255.238281 245.804688 254.03125 245.167969 253.394531 243.960938 Z M 244.503906 227.957031 C 243.550781 226.242188 244.1875 224.082031 245.839844 223.191406 C 247.554688 222.242188 249.710938 222.875 250.601562 224.589844 C 251.554688 226.304688 250.917969 228.402344 249.269531 229.355469 C 248.695312 229.671875 248.125 229.796875 247.554688 229.796875 C 246.347656 229.796875 245.140625 229.164062 244.503906 227.957031 Z M 235.613281 211.949219 C 234.660156 210.234375 235.292969 208.078125 236.945312 207.1875 C 238.660156 206.234375 240.820312 206.871094 241.710938 208.585938 C 242.664062 210.300781 242.027344 212.394531 240.3125 213.347656 C 239.804688 213.664062 239.167969 213.792969 238.597656 213.792969 C 237.453125 213.792969 236.246094 213.09375 235.613281 211.949219 Z M 226.71875 195.945312 C 225.769531 194.230469 226.402344 192.070312 228.117188 191.183594 C 229.832031 190.230469 231.929688 190.863281 232.882812 192.578125 C 233.832031 194.292969 233.199219 196.390625 231.484375 197.34375 C 230.976562 197.660156 230.339844 197.789062 229.769531 197.789062 C 228.5625 197.722656 227.355469 197.089844 226.71875 195.945312 Z M 217.828125 179.941406 C 216.875 178.226562 217.511719 176.066406 219.160156 175.175781 C 220.878906 174.222656 223.035156 174.859375 223.925781 176.574219 C 224.878906 178.289062 224.242188 180.382812 222.59375 181.335938 C 222.019531 181.65625 221.449219 181.78125 220.875 181.78125 C 219.671875 181.71875 218.464844 181.082031 217.828125 179.941406 Z M 208.9375 163.871094 C 207.984375 162.15625 208.617188 160.058594 210.269531 159.105469 C 211.984375 158.152344 214.144531 158.789062 215.035156 160.503906 C 215.984375 162.21875 215.351562 164.316406 213.636719 165.269531 C 213.066406 165.585938 212.492188 165.710938 211.921875 165.710938 C 210.777344 165.710938 209.570312 165.078125 208.9375 163.871094 Z M 200.042969 147.863281 C 199.089844 146.148438 199.726562 144.054688 201.441406 143.101562 C 203.15625 142.148438 205.253906 142.785156 206.203125 144.5 C 207.15625 146.214844 206.523438 148.308594 204.808594 149.261719 C 204.300781 149.578125 203.664062 149.707031 203.09375 149.707031 C 201.886719 149.707031 200.679688 149.007812 200.042969 147.863281 Z M 191.152344 131.859375 C 190.199219 130.144531 190.835938 128.046875 192.550781 127.09375 C 194.265625 126.144531 196.359375 126.777344 197.3125 128.492188 C 198.265625 130.207031 197.628906 132.304688 195.914062 133.257812 C 195.34375 133.574219 194.773438 133.699219 194.199219 133.699219 C 192.992188 133.699219 191.789062 133.003906 191.152344 131.859375 Z M 182.261719 115.851562 C 181.308594 114.136719 181.941406 111.980469 183.59375 111.089844 C 185.308594 110.136719 187.46875 110.773438 188.359375 112.488281 C 189.308594 114.203125 188.675781 116.296875 187.023438 117.25 C 186.453125 117.566406 185.878906 117.695312 185.308594 117.695312 C 184.101562 117.632812 182.894531 116.996094 182.261719 115.851562 Z M 173.367188 99.847656 C 172.414062 98.132812 173.050781 95.972656 174.703125 95.085938 C 176.417969 94.132812 178.578125 94.765625 179.464844 96.480469 C 180.417969 98.195312 179.78125 100.292969 178.066406 101.246094 C 177.558594 101.5625 176.925781 101.691406 176.351562 101.691406 C 175.210938 101.625 174.003906 100.992188 173.367188 99.847656 Z M 173.367188 99.847656 " fill-opacity="1" fill-rule="nonzero"/><path fill="#cb6ce6" d="M 274.292969 277.878906 C 274.039062 277.878906 273.847656 277.878906 273.59375 277.816406 C 273.402344 277.753906 273.148438 277.6875 272.957031 277.625 C 272.769531 277.5625 272.515625 277.433594 272.324219 277.308594 C 272.132812 277.179688 271.941406 277.054688 271.816406 276.863281 C 271.179688 276.226562 270.800781 275.273438 270.800781 274.386719 C 270.800781 274.132812 270.800781 273.941406 270.863281 273.6875 C 270.925781 273.433594 270.988281 273.242188 271.054688 273.050781 C 271.117188 272.863281 271.242188 272.609375 271.371094 272.417969 C 271.5 272.226562 271.625 272.035156 271.816406 271.910156 C 271.941406 271.71875 272.132812 271.589844 272.324219 271.464844 C 272.515625 271.335938 272.703125 271.210938 272.957031 271.148438 C 273.148438 271.082031 273.402344 271.019531 273.59375 270.957031 C 274.039062 270.828125 274.546875 270.828125 274.992188 270.957031 C 275.183594 271.019531 275.4375 271.082031 275.625 271.148438 C 275.816406 271.210938 276.070312 271.335938 276.261719 271.464844 C 276.453125 271.589844 276.644531 271.71875 276.769531 271.910156 C 276.960938 272.097656 277.085938 272.226562 277.214844 272.417969 C 277.339844 272.609375 277.46875 272.796875 277.53125 273.050781 C 277.59375 273.242188 277.660156 273.496094 277.722656 273.6875 C 277.785156 273.941406 277.785156 274.132812 277.785156 274.386719 C 277.785156 275.339844 277.40625 276.226562 276.769531 276.863281 C 276.132812 277.5 275.246094 277.878906 274.292969 277.878906 Z M 274.292969 277.878906 " fill-opacity="1" fill-rule="nonzero"/><path fill="#cb6ce6" d="M 153.359375 111.152344 C 153.105469 111.152344 152.917969 111.152344 152.664062 111.089844 C 152.40625 111.027344 152.21875 110.960938 152.027344 110.898438 C 151.835938 110.835938 151.582031 110.707031 151.390625 110.582031 C 151.203125 110.453125 151.011719 110.328125 150.882812 110.136719 C 150.25 109.5 149.867188 108.550781 149.867188 107.660156 C 149.867188 106.707031 150.25 105.816406 150.882812 105.183594 C 151.519531 104.546875 152.472656 104.167969 153.359375 104.167969 C 154.3125 104.167969 155.203125 104.546875 155.839844 105.183594 C 156.472656 105.816406 156.855469 106.769531 156.855469 107.660156 C 156.855469 107.914062 156.855469 108.105469 156.789062 108.359375 C 156.726562 108.550781 156.664062 108.804688 156.601562 108.992188 C 156.535156 109.183594 156.410156 109.4375 156.28125 109.628906 C 156.15625 109.820312 156.027344 110.011719 155.839844 110.136719 C 155.648438 110.328125 155.519531 110.453125 155.328125 110.582031 C 155.140625 110.707031 154.949219 110.835938 154.695312 110.898438 C 154.503906 110.960938 154.25 111.027344 154.058594 111.089844 C 153.804688 111.152344 153.550781 111.152344 153.359375 111.152344 Z M 153.359375 111.152344 " fill-opacity="1" fill-rule="nonzero"/><path fill="#cb6ce6" d="M 233.960938 260.855469 C 233.007812 259.140625 233.644531 256.984375 235.359375 256.09375 C 237.074219 255.140625 239.234375 255.777344 240.121094 257.492188 C 241.074219 259.207031 240.441406 261.367188 238.722656 262.253906 C 238.214844 262.570312 237.582031 262.699219 237.007812 262.699219 C 235.804688 262.699219 234.597656 262.0625 233.960938 260.855469 Z M 225.578125 245.742188 C 224.625 244.027344 225.257812 241.867188 226.972656 240.976562 C 228.6875 240.023438 230.847656 240.660156 231.738281 242.375 C 232.691406 244.089844 232.054688 246.25 230.339844 247.136719 C 229.832031 247.457031 229.199219 247.582031 228.625 247.582031 C 227.417969 247.519531 226.210938 246.882812 225.578125 245.742188 Z M 217.257812 230.5625 C 216.304688 228.847656 216.9375 226.75 218.652344 225.796875 C 220.367188 224.84375 222.464844 225.480469 223.417969 227.195312 C 224.371094 228.910156 223.734375 231.070312 222.019531 231.957031 C 221.449219 232.277344 220.878906 232.402344 220.304688 232.402344 C 219.097656 232.402344 217.890625 231.703125 217.257812 230.5625 Z M 208.871094 215.378906 C 207.921875 213.664062 208.554688 211.570312 210.269531 210.617188 C 211.984375 209.664062 214.144531 210.300781 215.035156 212.015625 C 215.984375 213.730469 215.351562 215.824219 213.636719 216.777344 C 213.128906 217.09375 212.492188 217.222656 211.921875 217.222656 C 210.714844 217.222656 209.507812 216.585938 208.871094 215.378906 Z M 200.488281 200.265625 C 199.535156 198.550781 200.171875 196.390625 201.886719 195.5 C 203.601562 194.546875 205.695312 195.183594 206.648438 196.898438 C 207.601562 198.613281 206.96875 200.773438 205.253906 201.660156 C 204.746094 201.980469 204.109375 202.105469 203.539062 202.105469 C 202.332031 202.105469 201.125 201.40625 200.488281 200.265625 Z M 192.105469 185.085938 C 191.152344 183.371094 191.789062 181.210938 193.503906 180.320312 C 195.21875 179.367188 197.375 180.003906 198.265625 181.71875 C 199.21875 183.433594 198.582031 185.59375 196.867188 186.480469 C 196.296875 186.800781 195.726562 186.925781 195.152344 186.925781 C 193.945312 186.925781 192.738281 186.292969 192.105469 185.085938 Z M 183.722656 169.96875 C 182.769531 168.253906 183.402344 166.09375 185.117188 165.203125 C 186.832031 164.25 188.992188 164.886719 189.882812 166.601562 C 190.835938 168.316406 190.199219 170.414062 188.484375 171.363281 C 187.976562 171.683594 187.339844 171.808594 186.769531 171.808594 C 185.5625 171.746094 184.355469 171.109375 183.722656 169.96875 Z M 175.335938 154.789062 C 174.382812 153.074219 175.019531 150.914062 176.734375 150.023438 C 178.449219 149.070312 180.546875 149.707031 181.496094 151.421875 C 182.449219 153.136719 181.816406 155.296875 180.101562 156.183594 C 179.59375 156.503906 178.957031 156.628906 178.386719 156.628906 C 177.179688 156.628906 176.035156 155.929688 175.335938 154.789062 Z M 167.015625 139.671875 C 166.0625 137.957031 166.699219 135.796875 168.414062 134.90625 C 170.128906 133.953125 172.289062 134.589844 173.175781 136.304688 C 174.128906 138.019531 173.496094 140.179688 171.78125 141.070312 C 171.207031 141.386719 170.636719 141.511719 170.066406 141.511719 C 168.859375 141.449219 167.652344 140.816406 167.015625 139.671875 Z M 158.632812 124.492188 C 157.679688 122.777344 158.316406 120.617188 160.03125 119.726562 C 161.746094 118.773438 163.90625 119.410156 164.792969 121.125 C 165.746094 122.839844 165.109375 124.9375 163.394531 125.886719 C 162.886719 126.207031 162.253906 126.332031 161.679688 126.332031 C 160.472656 126.332031 159.269531 125.632812 158.632812 124.492188 Z M 158.632812 124.492188 " fill-opacity="1" fill-rule="nonzero"/><path fill="#cb6ce6" d="M 245.394531 277.878906 C 244.441406 277.878906 243.550781 277.5 242.917969 276.863281 C 242.726562 276.671875 242.597656 276.546875 242.472656 276.355469 C 242.34375 276.164062 242.21875 275.972656 242.15625 275.71875 C 242.089844 275.527344 241.964844 275.273438 241.964844 275.085938 C 241.964844 274.894531 241.898438 274.640625 241.898438 274.386719 C 241.898438 274.132812 241.898438 273.941406 241.964844 273.6875 C 242.027344 273.433594 242.089844 273.242188 242.15625 273.050781 C 242.21875 272.863281 242.34375 272.609375 242.472656 272.417969 C 242.597656 272.226562 242.726562 272.035156 242.917969 271.910156 C 243.742188 271.082031 244.949219 270.703125 246.09375 270.957031 C 246.28125 271.019531 246.535156 271.082031 246.726562 271.148438 C 246.917969 271.273438 247.171875 271.335938 247.363281 271.464844 C 247.554688 271.589844 247.742188 271.71875 247.871094 271.910156 C 248.0625 272.097656 248.1875 272.226562 248.316406 272.417969 C 248.441406 272.609375 248.570312 272.796875 248.632812 273.050781 C 248.695312 273.242188 248.761719 273.496094 248.824219 273.6875 C 248.886719 273.941406 248.886719 274.132812 248.886719 274.386719 C 248.886719 274.640625 248.886719 274.832031 248.824219 275.085938 C 248.761719 275.339844 248.695312 275.527344 248.632812 275.71875 C 248.570312 275.910156 248.441406 276.164062 248.316406 276.355469 C 248.1875 276.546875 248.0625 276.734375 247.871094 276.863281 C 247.742188 277.054688 247.554688 277.179688 247.363281 277.308594 C 247.171875 277.433594 246.980469 277.5625 246.726562 277.625 C 246.535156 277.6875 246.28125 277.753906 246.09375 277.816406 C 245.902344 277.816406 245.648438 277.878906 245.394531 277.878906 Z M 245.394531 277.878906 " fill-opacity="1" fill-rule="nonzero"/><path fill="#cb6ce6" d="M 138.753906 137.386719 C 137.800781 137.386719 136.910156 137.003906 136.277344 136.367188 C 135.640625 135.734375 135.257812 134.78125 135.257812 133.890625 C 135.257812 132.9375 135.640625 132.050781 136.277344 131.414062 C 136.910156 130.777344 137.863281 130.398438 138.753906 130.398438 C 139.707031 130.398438 140.59375 130.777344 141.230469 131.414062 C 141.863281 132.050781 142.246094 133.003906 142.246094 133.890625 C 142.246094 134.144531 142.246094 134.335938 142.183594 134.589844 C 142.117188 134.84375 142.054688 135.035156 141.992188 135.226562 C 141.929688 135.414062 141.800781 135.667969 141.675781 135.859375 C 141.546875 136.050781 141.421875 136.242188 141.230469 136.367188 C 140.59375 137.003906 139.707031 137.386719 138.753906 137.386719 Z M 138.753906 137.386719 " fill-opacity="1" fill-rule="nonzero"/><path fill="#cb6ce6" d="M 202.902344 260.414062 C 202.011719 258.699219 202.648438 256.539062 204.363281 255.648438 C 206.078125 254.695312 208.238281 255.394531 209.125 257.046875 C 210.078125 258.761719 209.378906 260.921875 207.664062 261.808594 C 207.15625 262.0625 206.585938 262.253906 206.015625 262.253906 C 204.746094 262.253906 203.539062 261.554688 202.902344 260.414062 Z M 194.453125 244.789062 C 193.566406 243.074219 194.199219 240.914062 195.914062 240.023438 C 197.628906 239.070312 199.789062 239.707031 200.679688 241.421875 C 201.632812 243.136719 200.996094 245.296875 199.28125 246.183594 C 198.773438 246.441406 198.203125 246.628906 197.628906 246.628906 C 196.359375 246.628906 195.089844 245.929688 194.453125 244.789062 Z M 186.070312 229.164062 C 185.117188 227.449219 185.816406 225.289062 187.53125 224.398438 C 189.246094 223.511719 191.40625 224.144531 192.296875 225.859375 C 193.25 227.574219 192.550781 229.734375 190.898438 230.625 C 190.390625 230.878906 189.816406 231.070312 189.246094 231.070312 C 187.914062 231.003906 186.707031 230.371094 186.070312 229.164062 Z M 177.6875 213.539062 C 176.734375 211.824219 177.433594 209.664062 179.085938 208.773438 C 180.800781 207.886719 182.957031 208.519531 183.847656 210.234375 C 184.800781 211.949219 184.101562 214.109375 182.449219 215 C 181.941406 215.253906 181.371094 215.445312 180.800781 215.445312 C 179.527344 215.445312 178.320312 214.746094 177.6875 213.539062 Z M 169.304688 197.976562 C 168.351562 196.261719 168.984375 194.101562 170.699219 193.214844 C 172.414062 192.324219 174.574219 192.960938 175.464844 194.675781 C 176.351562 196.390625 175.71875 198.550781 174.003906 199.4375 C 173.496094 199.691406 172.921875 199.882812 172.351562 199.882812 C 171.144531 199.820312 169.9375 199.121094 169.304688 197.976562 Z M 160.855469 182.351562 C 159.902344 180.636719 160.601562 178.480469 162.316406 177.589844 C 164.03125 176.636719 166.191406 177.335938 167.078125 179.050781 C 167.96875 180.765625 167.335938 182.925781 165.621094 183.8125 C 165.109375 184.066406 164.539062 184.257812 163.96875 184.257812 C 162.699219 184.195312 161.492188 183.558594 160.855469 182.351562 Z M 152.472656 166.730469 C 151.519531 165.015625 152.21875 162.855469 153.867188 161.964844 C 155.582031 161.011719 157.742188 161.710938 158.632812 163.425781 C 159.585938 165.140625 158.886719 167.300781 157.234375 168.1875 C 156.726562 168.507812 156.15625 168.632812 155.582031 168.632812 C 154.3125 168.570312 153.105469 167.933594 152.472656 166.730469 Z M 144.085938 151.167969 C 143.136719 149.453125 143.832031 147.292969 145.484375 146.402344 C 147.199219 145.449219 149.359375 146.148438 150.25 147.863281 C 151.203125 149.578125 150.503906 151.738281 148.789062 152.628906 C 148.28125 152.945312 147.707031 153.074219 147.136719 153.074219 C 145.929688 153.007812 144.722656 152.3125 144.085938 151.167969 Z M 144.085938 151.167969 " fill-opacity="1" fill-rule="nonzero"/><path fill="#cb6ce6" d="M 214.398438 277.878906 C 214.144531 277.878906 213.953125 277.878906 213.699219 277.816406 C 213.445312 277.753906 213.253906 277.6875 213.066406 277.625 C 212.875 277.5625 212.621094 277.433594 212.429688 277.308594 C 212.238281 277.179688 212.046875 277.054688 211.921875 276.863281 C 211.792969 276.671875 211.605469 276.546875 211.476562 276.355469 C 211.351562 276.164062 211.222656 275.972656 211.160156 275.71875 C 211.09375 275.527344 211.03125 275.273438 210.96875 275.085938 C 210.90625 274.894531 210.90625 274.640625 210.90625 274.386719 C 210.90625 274.132812 210.90625 273.941406 210.96875 273.6875 C 211.03125 273.433594 211.09375 273.242188 211.160156 273.050781 C 211.222656 272.863281 211.351562 272.609375 211.476562 272.417969 C 211.605469 272.226562 211.730469 272.035156 211.921875 271.910156 C 212.046875 271.71875 212.238281 271.589844 212.429688 271.464844 C 212.621094 271.335938 212.8125 271.210938 213.066406 271.148438 C 213.253906 271.082031 213.507812 271.019531 213.699219 270.957031 C 214.84375 270.703125 216.050781 271.082031 216.875 271.910156 C 217.003906 272.035156 217.191406 272.226562 217.320312 272.417969 C 217.445312 272.609375 217.574219 272.796875 217.636719 273.050781 C 217.703125 273.242188 217.828125 273.496094 217.828125 273.6875 C 217.890625 273.941406 217.890625 274.132812 217.890625 274.386719 C 217.890625 274.640625 217.890625 274.832031 217.828125 275.085938 C 217.765625 275.339844 217.703125 275.527344 217.636719 275.71875 C 217.574219 275.910156 217.445312 276.164062 217.320312 276.355469 C 217.191406 276.546875 217.066406 276.734375 216.875 276.863281 C 216.242188 277.5 215.351562 277.878906 214.398438 277.878906 Z M 214.398438 277.878906 " fill-opacity="1" fill-rule="nonzero"/><path fill="#cb6ce6" d="M 122.175781 167.300781 C 121.222656 167.300781 120.332031 166.917969 119.699219 166.285156 C 119.0625 165.648438 118.683594 164.695312 118.683594 163.808594 C 118.683594 163.554688 118.683594 163.363281 118.746094 163.109375 C 118.808594 162.855469 118.871094 162.664062 118.9375 162.472656 C 119.0625 162.28125 119.125 162.027344 119.253906 161.839844 C 119.378906 161.648438 119.507812 161.457031 119.699219 161.328125 C 119.824219 161.203125 120.015625 161.011719 120.207031 160.886719 C 120.398438 160.757812 120.585938 160.632812 120.839844 160.566406 C 121.03125 160.503906 121.285156 160.441406 121.476562 160.378906 C 121.921875 160.3125 122.367188 160.3125 122.875 160.378906 C 123.0625 160.441406 123.320312 160.503906 123.507812 160.566406 C 123.699219 160.632812 123.953125 160.757812 124.144531 160.886719 C 124.335938 161.011719 124.523438 161.140625 124.652344 161.328125 C 124.777344 161.519531 124.96875 161.648438 125.097656 161.839844 C 125.222656 162.027344 125.351562 162.21875 125.414062 162.472656 C 125.476562 162.664062 125.542969 162.917969 125.605469 163.109375 C 125.667969 163.363281 125.667969 163.554688 125.667969 163.808594 C 125.667969 164.757812 125.289062 165.648438 124.652344 166.285156 C 124.460938 166.410156 124.335938 166.601562 124.144531 166.730469 C 123.953125 166.855469 123.761719 166.984375 123.507812 167.046875 C 123.320312 167.109375 123.0625 167.171875 122.875 167.238281 C 122.621094 167.300781 122.367188 167.300781 122.175781 167.300781 Z M 122.175781 167.300781 " fill-opacity="1" fill-rule="nonzero"/><path fill="#cb6ce6" d="M 170.382812 260.222656 C 169.429688 258.507812 170.066406 256.347656 171.78125 255.457031 C 173.496094 254.503906 175.65625 255.140625 176.542969 256.855469 C 177.496094 258.570312 176.859375 260.730469 175.144531 261.621094 C 174.636719 261.9375 174.066406 262.0625 173.496094 262.0625 C 172.226562 262.0625 171.019531 261.367188 170.382812 260.222656 Z M 161.808594 244.40625 C 160.855469 242.691406 161.492188 240.53125 163.207031 239.644531 C 164.921875 238.691406 167.078125 239.324219 167.96875 241.039062 C 168.921875 242.753906 168.285156 244.914062 166.570312 245.804688 C 166.0625 246.121094 165.492188 246.25 164.921875 246.25 C 163.648438 246.25 162.445312 245.613281 161.808594 244.40625 Z M 153.234375 228.59375 C 152.28125 226.878906 152.917969 224.71875 154.632812 223.828125 C 156.347656 222.875 158.503906 223.511719 159.394531 225.226562 C 160.347656 226.941406 159.710938 229.101562 157.996094 229.988281 C 157.488281 230.308594 156.917969 230.433594 156.347656 230.433594 C 155.140625 230.496094 153.933594 229.796875 153.234375 228.59375 Z M 144.722656 212.839844 C 143.769531 211.125 144.40625 208.964844 146.121094 208.078125 C 147.835938 207.125 149.996094 207.757812 150.882812 209.472656 C 151.835938 211.1875 151.203125 213.347656 149.488281 214.238281 C 148.976562 214.554688 148.40625 214.683594 147.835938 214.683594 C 146.566406 214.683594 145.359375 213.984375 144.722656 212.839844 Z M 136.148438 197.023438 C 135.195312 195.308594 135.832031 193.152344 137.546875 192.261719 C 139.261719 191.308594 141.421875 191.945312 142.308594 193.660156 C 143.261719 195.375 142.625 197.53125 140.910156 198.421875 C 140.402344 198.675781 139.832031 198.867188 139.261719 198.867188 C 137.992188 198.867188 136.785156 198.230469 136.148438 197.023438 Z M 127.636719 181.210938 C 126.683594 179.496094 127.320312 177.335938 129.035156 176.445312 C 130.75 175.492188 132.84375 176.128906 133.796875 177.84375 C 134.75 179.558594 134.117188 181.71875 132.402344 182.605469 C 131.894531 182.925781 131.320312 183.050781 130.75 183.050781 C 129.480469 183.117188 128.273438 182.417969 127.636719 181.210938 Z M 127.636719 181.210938 " fill-opacity="1" fill-rule="nonzero"/><path fill="#cb6ce6" d="M 182.007812 277.878906 C 181.054688 277.878906 180.164062 277.5 179.527344 276.863281 C 179.339844 276.671875 179.210938 276.546875 179.085938 276.355469 C 178.957031 276.164062 178.832031 275.972656 178.765625 275.71875 C 178.703125 275.527344 178.640625 275.273438 178.578125 275.085938 C 178.511719 274.832031 178.511719 274.640625 178.511719 274.386719 C 178.511719 274.132812 178.511719 273.941406 178.578125 273.6875 C 178.640625 273.433594 178.703125 273.242188 178.765625 273.050781 C 178.832031 272.863281 178.957031 272.609375 179.085938 272.417969 C 179.210938 272.226562 179.339844 272.035156 179.527344 271.910156 C 180.164062 271.273438 181.117188 270.894531 182.007812 270.894531 C 182.957031 270.894531 183.847656 271.273438 184.484375 271.910156 C 184.671875 272.097656 184.800781 272.226562 184.925781 272.417969 C 185.054688 272.609375 185.183594 272.796875 185.246094 273.050781 C 185.308594 273.242188 185.371094 273.496094 185.4375 273.6875 C 185.5 273.941406 185.5 274.132812 185.5 274.386719 C 185.5 274.640625 185.5 274.832031 185.4375 275.085938 C 185.371094 275.339844 185.308594 275.527344 185.246094 275.71875 C 185.183594 275.910156 185.054688 276.164062 184.925781 276.355469 C 184.800781 276.546875 184.671875 276.734375 184.484375 276.863281 C 184.355469 277.054688 184.164062 277.179688 183.976562 277.308594 C 183.785156 277.433594 183.59375 277.5625 183.339844 277.625 C 183.148438 277.6875 182.894531 277.753906 182.703125 277.816406 C 182.449219 277.816406 182.261719 277.878906 182.007812 277.878906 Z M 182.007812 277.878906 " fill-opacity="1" fill-rule="nonzero"/><path fill="#cb6ce6" d="M 105.914062 196.515625 C 104.960938 196.515625 104.074219 196.136719 103.4375 195.5 C 103.246094 195.308594 103.121094 195.183594 102.992188 194.992188 C 102.867188 194.800781 102.738281 194.613281 102.675781 194.359375 C 102.613281 194.167969 102.550781 193.914062 102.484375 193.722656 C 102.421875 193.46875 102.421875 193.277344 102.421875 193.023438 C 102.421875 192.769531 102.421875 192.578125 102.484375 192.324219 C 102.550781 192.070312 102.613281 191.878906 102.675781 191.691406 C 102.738281 191.5 102.867188 191.246094 102.992188 191.054688 C 103.121094 190.863281 103.246094 190.671875 103.4375 190.546875 C 104.074219 189.910156 105.027344 189.53125 105.914062 189.53125 C 106.867188 189.53125 107.757812 189.910156 108.390625 190.546875 C 109.027344 191.183594 109.410156 192.132812 109.410156 193.023438 C 109.410156 193.976562 109.027344 194.867188 108.390625 195.5 C 107.757812 196.136719 106.867188 196.515625 105.914062 196.515625 Z M 105.914062 196.515625 " fill-opacity="1" fill-rule="nonzero"/><path fill="#cb6ce6" d="M 139.769531 259.777344 C 138.816406 258.0625 139.386719 255.964844 141.101562 254.949219 C 142.816406 253.996094 144.914062 254.570312 145.929688 256.285156 C 146.882812 258 146.3125 260.09375 144.597656 261.113281 C 144.023438 261.429688 143.453125 261.554688 142.882812 261.554688 C 141.609375 261.554688 140.46875 260.921875 139.769531 259.777344 Z M 130.558594 243.519531 C 129.605469 241.804688 130.179688 239.644531 131.894531 238.691406 C 133.609375 237.738281 135.703125 238.308594 136.71875 240.023438 C 137.671875 241.738281 137.101562 243.898438 135.386719 244.851562 C 134.816406 245.167969 134.242188 245.296875 133.671875 245.296875 C 132.402344 245.296875 131.195312 244.660156 130.558594 243.519531 Z M 121.347656 227.257812 C 120.398438 225.542969 120.96875 223.445312 122.683594 222.429688 C 124.398438 221.476562 126.496094 222.050781 127.511719 223.765625 C 128.464844 225.480469 127.890625 227.640625 126.175781 228.59375 C 125.605469 228.910156 125.035156 229.035156 124.460938 229.035156 C 123.191406 229.035156 121.984375 228.402344 121.347656 227.257812 Z M 112.078125 211 C 111.125 209.285156 111.695312 207.1875 113.410156 206.171875 C 115.125 205.21875 117.222656 205.789062 118.238281 207.503906 C 119.191406 209.21875 118.617188 211.316406 116.902344 212.332031 C 116.332031 212.648438 115.761719 212.777344 115.1875 212.777344 C 113.917969 212.777344 112.773438 212.140625 112.078125 211 Z M 112.078125 211 " fill-opacity="1" fill-rule="nonzero"/><path fill="#cb6ce6" d="M 152.089844 277.878906 C 151.835938 277.878906 151.644531 277.878906 151.390625 277.816406 C 151.136719 277.753906 150.949219 277.6875 150.757812 277.625 C 150.566406 277.5625 150.3125 277.433594 150.121094 277.308594 C 149.929688 277.179688 149.742188 277.054688 149.613281 276.863281 C 149.421875 276.671875 149.296875 276.546875 149.167969 276.355469 C 149.042969 276.164062 148.914062 275.972656 148.851562 275.71875 C 148.789062 275.527344 148.722656 275.273438 148.660156 275.085938 C 148.597656 274.832031 148.597656 274.640625 148.597656 274.386719 C 148.597656 274.132812 148.597656 273.941406 148.660156 273.6875 C 148.722656 273.433594 148.789062 273.242188 148.851562 273.050781 C 148.914062 272.863281 149.042969 272.609375 149.167969 272.417969 C 149.296875 272.226562 149.421875 272.035156 149.613281 271.910156 C 149.742188 271.71875 149.929688 271.589844 150.121094 271.464844 C 150.3125 271.335938 150.503906 271.210938 150.757812 271.148438 C 150.949219 271.082031 151.203125 271.019531 151.390625 270.957031 C 151.835938 270.828125 152.28125 270.828125 152.789062 270.957031 C 152.980469 271.019531 153.234375 271.082031 153.425781 271.148438 C 153.613281 271.273438 153.867188 271.335938 154.058594 271.464844 C 154.25 271.589844 154.441406 271.71875 154.566406 271.910156 C 154.695312 272.097656 154.886719 272.226562 155.011719 272.417969 C 155.140625 272.609375 155.265625 272.796875 155.328125 273.050781 C 155.394531 273.304688 155.457031 273.496094 155.519531 273.6875 C 155.582031 273.941406 155.582031 274.132812 155.582031 274.386719 C 155.582031 274.640625 155.582031 274.832031 155.519531 275.085938 C 155.457031 275.339844 155.394531 275.527344 155.328125 275.71875 C 155.265625 275.910156 155.140625 276.164062 155.011719 276.355469 C 154.886719 276.546875 154.757812 276.734375 154.566406 276.863281 C 153.933594 277.5 153.042969 277.878906 152.089844 277.878906 Z M 152.089844 277.878906 " fill-opacity="1" fill-rule="nonzero"/><path fill="#cb6ce6" d="M 89.71875 225.734375 C 89.464844 225.734375 89.273438 225.734375 89.019531 225.671875 C 88.828125 225.605469 88.574219 225.542969 88.386719 225.480469 C 88.195312 225.417969 87.941406 225.289062 87.75 225.160156 C 87.558594 225.035156 87.367188 224.90625 87.242188 224.71875 C 87.113281 224.527344 86.925781 224.398438 86.796875 224.210938 C 86.671875 224.019531 86.542969 223.828125 86.480469 223.574219 C 86.417969 223.382812 86.351562 223.128906 86.289062 222.9375 C 86.226562 222.683594 86.226562 222.496094 86.226562 222.242188 C 86.226562 221.289062 86.605469 220.398438 87.242188 219.761719 C 87.433594 219.574219 87.558594 219.445312 87.75 219.320312 C 87.941406 219.191406 88.132812 219.066406 88.386719 219 C 88.574219 218.9375 88.828125 218.875 89.019531 218.8125 C 89.464844 218.683594 89.972656 218.683594 90.417969 218.8125 C 90.671875 218.875 90.863281 218.9375 91.054688 219 C 91.242188 219.066406 91.496094 219.191406 91.6875 219.320312 C 91.878906 219.445312 92.070312 219.574219 92.195312 219.761719 C 92.832031 220.398438 93.210938 221.351562 93.210938 222.242188 C 93.210938 223.128906 92.832031 224.082031 92.195312 224.71875 C 92.070312 224.84375 91.878906 225.035156 91.6875 225.160156 C 91.496094 225.289062 91.308594 225.417969 91.054688 225.480469 C 90.863281 225.542969 90.609375 225.671875 90.417969 225.671875 C 90.164062 225.671875 89.910156 225.734375 89.71875 225.734375 Z M 89.71875 225.734375 " fill-opacity="1" fill-rule="nonzero"/><path fill="#cb6ce6" d="M 106.804688 258.699219 C 105.851562 257.046875 106.421875 254.886719 108.074219 253.871094 C 109.726562 252.917969 111.886719 253.488281 112.902344 255.140625 C 113.855469 256.792969 113.28125 258.953125 111.632812 259.96875 C 111.058594 260.285156 110.488281 260.476562 109.851562 260.476562 C 108.648438 260.476562 107.503906 259.839844 106.804688 258.699219 Z M 96.769531 241.359375 C 95.816406 239.707031 96.386719 237.546875 98.039062 236.53125 C 99.691406 235.578125 101.851562 236.148438 102.867188 237.800781 C 103.820312 239.453125 103.246094 241.613281 101.597656 242.628906 C 101.023438 242.945312 100.453125 243.074219 99.816406 243.074219 C 98.546875 243.074219 97.40625 242.4375 96.769531 241.359375 Z M 96.769531 241.359375 " fill-opacity="1" fill-rule="nonzero"/><path fill="#cb6ce6" d="M 119.953125 277.878906 C 119.699219 277.878906 119.507812 277.878906 119.253906 277.816406 C 119.0625 277.753906 118.808594 277.6875 118.617188 277.625 C 118.429688 277.5625 118.171875 277.433594 117.984375 277.308594 C 117.792969 277.179688 117.601562 277.054688 117.476562 276.863281 C 117.285156 276.671875 117.15625 276.546875 117.03125 276.355469 C 116.902344 276.164062 116.777344 275.972656 116.714844 275.71875 C 116.648438 275.527344 116.585938 275.273438 116.523438 275.085938 C 116.457031 274.832031 116.457031 274.640625 116.457031 274.386719 C 116.457031 274.132812 116.457031 273.941406 116.523438 273.6875 C 116.585938 273.433594 116.648438 273.242188 116.714844 273.050781 C 116.777344 272.863281 116.902344 272.609375 117.03125 272.417969 C 117.15625 272.226562 117.285156 272.035156 117.476562 271.910156 C 117.601562 271.71875 117.792969 271.589844 117.984375 271.464844 C 118.171875 271.335938 118.363281 271.210938 118.617188 271.148438 C 118.808594 271.082031 119.0625 271.019531 119.253906 270.957031 C 119.699219 270.828125 120.207031 270.828125 120.652344 270.957031 C 120.839844 271.019531 121.09375 271.082031 121.285156 271.148438 C 121.476562 271.273438 121.730469 271.335938 121.921875 271.464844 C 122.113281 271.589844 122.300781 271.71875 122.429688 271.910156 C 122.554688 272.097656 122.746094 272.226562 122.875 272.417969 C 123 272.609375 123.128906 272.796875 123.191406 273.050781 C 123.253906 273.242188 123.320312 273.496094 123.382812 273.6875 C 123.445312 273.941406 123.445312 274.132812 123.445312 274.386719 C 123.445312 274.640625 123.445312 274.832031 123.382812 275.085938 C 123.320312 275.339844 123.253906 275.527344 123.191406 275.71875 C 123.128906 275.910156 123 276.164062 122.875 276.355469 C 122.746094 276.546875 122.621094 276.734375 122.429688 276.863281 C 121.792969 277.5 120.90625 277.878906 119.953125 277.878906 Z M 119.953125 277.878906 " fill-opacity="1" fill-rule="nonzero"/><path fill="#cb6ce6" d="M 74.667969 252.789062 C 74.414062 252.789062 74.222656 252.789062 73.96875 252.726562 C 73.714844 252.664062 73.523438 252.601562 73.332031 252.535156 C 73.140625 252.472656 72.886719 252.347656 72.695312 252.21875 C 72.507812 252.09375 72.316406 251.964844 72.1875 251.773438 C 71.554688 251.140625 71.171875 250.1875 71.171875 249.296875 C 71.171875 248.34375 71.554688 247.457031 72.1875 246.820312 C 72.378906 246.628906 72.507812 246.503906 72.695312 246.375 C 72.886719 246.25 73.078125 246.121094 73.332031 246.058594 C 73.523438 245.996094 73.777344 245.929688 73.96875 245.867188 C 74.414062 245.804688 74.921875 245.742188 75.363281 245.867188 C 75.617188 245.929688 75.808594 245.996094 76 246.058594 C 76.191406 246.121094 76.445312 246.25 76.636719 246.375 C 76.824219 246.503906 77.015625 246.628906 77.144531 246.820312 C 77.777344 247.457031 78.160156 248.410156 78.160156 249.296875 C 78.160156 250.25 77.777344 251.140625 77.144531 251.773438 C 76.507812 252.410156 75.617188 252.789062 74.667969 252.789062 Z M 74.667969 252.789062 " fill-opacity="1" fill-rule="nonzero"/><path fill="#cb6ce6" d="M 77.96875 263.398438 C 77.078125 261.683594 77.777344 259.523438 79.492188 258.632812 C 81.207031 257.746094 83.367188 258.445312 84.257812 260.160156 C 85.144531 261.875 84.449219 264.03125 82.734375 264.921875 C 82.222656 265.175781 81.652344 265.304688 81.144531 265.304688 C 79.875 265.304688 78.605469 264.605469 77.96875 263.398438 Z M 77.96875 263.398438 " fill-opacity="1" fill-rule="nonzero"/><path fill="#cb6ce6" d="M 87.558594 277.878906 C 86.605469 277.878906 85.71875 277.5 85.082031 276.863281 C 84.957031 276.671875 84.765625 276.546875 84.636719 276.355469 C 84.511719 276.164062 84.382812 275.972656 84.320312 275.71875 C 84.257812 275.527344 84.195312 275.273438 84.128906 275.085938 C 84.066406 274.832031 84.066406 274.640625 84.066406 274.386719 C 84.066406 274.132812 84.066406 273.941406 84.128906 273.6875 C 84.195312 273.433594 84.257812 273.242188 84.320312 273.050781 C 84.382812 272.863281 84.511719 272.609375 84.636719 272.417969 C 84.765625 272.226562 84.890625 272.035156 85.082031 271.910156 C 85.273438 271.71875 85.398438 271.589844 85.589844 271.464844 C 85.78125 271.335938 85.972656 271.210938 86.226562 271.148438 C 86.417969 271.082031 86.671875 271.019531 86.859375 270.957031 C 87.304688 270.828125 87.8125 270.828125 88.257812 270.957031 C 88.511719 271.019531 88.703125 271.082031 88.894531 271.148438 C 89.085938 271.273438 89.339844 271.335938 89.527344 271.464844 C 89.71875 271.589844 89.910156 271.71875 90.035156 271.910156 C 90.164062 272.097656 90.355469 272.226562 90.480469 272.417969 C 90.609375 272.609375 90.734375 272.796875 90.800781 273.050781 C 90.863281 273.304688 90.925781 273.496094 90.988281 273.6875 C 91.054688 273.941406 91.054688 274.132812 91.054688 274.386719 C 91.054688 274.640625 91.054688 274.832031 90.988281 275.085938 C 90.925781 275.339844 90.863281 275.527344 90.800781 275.71875 C 90.734375 275.910156 90.609375 276.164062 90.480469 276.355469 C 90.355469 276.546875 90.226562 276.734375 90.035156 276.863281 C 89.847656 277.054688 89.71875 277.179688 89.527344 277.308594 C 89.339844 277.433594 89.148438 277.5625 88.894531 277.625 C 88.703125 277.6875 88.449219 277.753906 88.257812 277.816406 C 88.066406 277.816406 87.8125 277.878906 87.558594 277.878906 Z M 87.558594 277.878906 " fill-opacity="1" fill-rule="nonzero"/><path fill="#cb6ce6" d="M 61.074219 272.035156 C 56.566406 272.035156 56.566406 279.085938 61.074219 279.085938 C 65.582031 279.085938 65.582031 272.035156 61.074219 272.035156 Z M 61.074219 272.035156 " fill-opacity="1" fill-rule="nonzero"/></svg>