<svg xmlns="http://www.w3.org/2000/svg" xmlns:xlink="http://www.w3.org/1999/xlink" width="500" zoomAndPan="magnify" viewBox="0 0 375 374.999991" height="500" preserveAspectRatio="xMidYMid meet" version="1.0"><defs><clipPath id="bf3067738d"><path d="M 113 115.089844 L 117 115.089844 L 117 120 L 113 120 Z M 113 115.089844 " clip-rule="nonzero"/></clipPath><clipPath id="1da921aa5e"><path d="M 121 115.089844 L 196 115.089844 L 196 120 L 121 120 Z M 121 115.089844 " clip-rule="nonzero"/></clipPath><clipPath id="84c6fc02b6"><path d="M 200 115.089844 L 205 115.089844 L 205 119 L 200 119 Z M 200 115.089844 " clip-rule="nonzero"/></clipPath><clipPath id="ed29a80356"><path d="M 112.5 144 L 117 144 L 117 149 L 112.5 149 Z M 112.5 144 " clip-rule="nonzero"/></clipPath><clipPath id="0f09ab95ac"><path d="M 112.5 154 L 117 154 L 117 159 L 112.5 159 Z M 112.5 154 " clip-rule="nonzero"/></clipPath><clipPath id="aabcc8b2ea"><path d="M 112.5 164 L 117 164 L 117 169 L 112.5 169 Z M 112.5 164 " clip-rule="nonzero"/></clipPath><clipPath id="e28a871961"><path d="M 112.5 175 L 117 175 L 117 180 L 112.5 180 Z M 112.5 175 " clip-rule="nonzero"/></clipPath><clipPath id="a8987bad9b"><path d="M 112.5 186 L 117 186 L 117 191 L 112.5 191 Z M 112.5 186 " clip-rule="nonzero"/></clipPath><clipPath id="7613d76517"><path d="M 112.5 197 L 117 197 L 117 202 L 112.5 202 Z M 112.5 197 " clip-rule="nonzero"/></clipPath><clipPath id="2231beecf0"><path d="M 112.5 207 L 117 207 L 117 211 L 112.5 211 Z M 112.5 207 " clip-rule="nonzero"/></clipPath><clipPath id="7d4641567b"><path d="M 112.5 217 L 117 217 L 117 222 L 112.5 222 Z M 112.5 217 " clip-rule="nonzero"/></clipPath><clipPath id="44deca32ec"><path d="M 177 172 L 262.5 172 L 262.5 259.839844 L 177 259.839844 Z M 177 172 " clip-rule="nonzero"/></clipPath></defs><path fill="#5e17eb" d="M 127.367188 129.863281 L 223.917969 129.863281 L 223.917969 226.414062 L 127.367188 226.414062 Z M 127.367188 129.863281 " fill-opacity="1" fill-rule="nonzero"/><g clip-path="url(#bf3067738d)"><path fill="#ffa0a5" d="M 115.035156 119.265625 C 114.5625 119.265625 114.089844 119.070312 113.738281 118.714844 C 113.421875 118.398438 113.222656 117.925781 113.222656 117.453125 C 113.222656 117.335938 113.222656 117.21875 113.265625 117.101562 C 113.304688 116.980469 113.34375 116.863281 113.382812 116.746094 C 113.421875 116.628906 113.5 116.546875 113.539062 116.429688 C 113.617188 116.3125 113.695312 116.234375 113.777344 116.15625 C 113.855469 116.074219 113.972656 115.996094 114.050781 115.917969 C 114.171875 115.839844 114.25 115.800781 114.367188 115.761719 C 114.484375 115.722656 114.601562 115.683594 114.722656 115.683594 C 115.3125 115.5625 115.941406 115.761719 116.375 116.195312 C 116.730469 116.546875 116.886719 117.019531 116.886719 117.492188 C 116.886719 117.964844 116.691406 118.4375 116.335938 118.792969 C 116.257812 118.832031 116.140625 118.910156 116.0625 118.953125 C 115.941406 119.03125 115.863281 119.109375 115.746094 119.148438 C 115.628906 119.1875 115.507812 119.226562 115.390625 119.226562 C 115.273438 119.265625 115.15625 119.265625 115.035156 119.265625 Z M 115.035156 119.265625 " fill-opacity="1" fill-rule="nonzero"/></g><g clip-path="url(#1da921aa5e)"><path fill="#ffa0a5" d="M 121.929688 117.414062 C 121.929688 116.390625 122.757812 115.601562 123.742188 115.601562 C 124.765625 115.601562 125.554688 116.429688 125.554688 117.414062 C 125.554688 118.4375 124.726562 119.226562 123.742188 119.226562 C 123.742188 119.226562 123.742188 119.226562 123.703125 119.226562 C 122.757812 119.226562 121.96875 118.398438 121.929688 117.414062 Z M 130.675781 117.375 C 130.675781 116.351562 131.503906 115.5625 132.488281 115.523438 C 133.511719 115.523438 134.300781 116.351562 134.339844 117.335938 C 134.339844 118.359375 133.511719 119.148438 132.527344 119.148438 C 131.503906 119.1875 130.675781 118.398438 130.675781 117.375 Z M 139.382812 117.335938 C 139.382812 116.3125 140.207031 115.523438 141.195312 115.484375 C 142.179688 115.484375 143.003906 116.3125 143.003906 117.296875 C 143.003906 118.320312 142.179688 119.109375 141.195312 119.109375 C 141.195312 119.109375 141.195312 119.109375 141.152344 119.109375 C 140.207031 119.148438 139.382812 118.359375 139.382812 117.335938 Z M 148.125 117.296875 C 148.125 116.273438 148.953125 115.484375 149.9375 115.445312 C 150.964844 115.445312 151.75 116.273438 151.789062 117.257812 C 151.789062 118.242188 150.964844 119.070312 149.976562 119.070312 C 148.914062 119.109375 148.125 118.320312 148.125 117.296875 Z M 156.832031 117.257812 C 156.832031 116.273438 157.660156 115.445312 158.644531 115.445312 C 159.628906 115.445312 160.457031 116.273438 160.457031 117.257812 C 160.457031 118.242188 159.628906 119.070312 158.644531 119.070312 C 158.644531 119.070312 158.644531 119.070312 158.605469 119.070312 C 157.660156 119.070312 156.832031 118.28125 156.832031 117.257812 Z M 165.539062 117.21875 C 165.539062 116.234375 166.367188 115.40625 167.351562 115.40625 C 168.375 115.40625 169.164062 116.234375 169.203125 117.21875 C 169.203125 118.203125 168.375 119.03125 167.390625 119.03125 C 166.367188 119.03125 165.539062 118.242188 165.539062 117.21875 Z M 174.285156 117.21875 C 174.285156 116.195312 175.109375 115.40625 176.097656 115.40625 C 177.121094 115.40625 177.90625 116.234375 177.90625 117.21875 C 177.90625 118.242188 177.082031 119.03125 176.097656 119.070312 C 176.097656 119.070312 176.097656 119.070312 176.054688 119.070312 C 175.070312 118.992188 174.285156 118.203125 174.285156 117.21875 Z M 182.988281 117.179688 C 182.988281 116.15625 183.777344 115.367188 184.800781 115.367188 C 185.824219 115.367188 186.613281 116.195312 186.652344 117.179688 C 186.652344 118.203125 185.824219 118.992188 184.839844 119.03125 C 183.816406 118.992188 182.988281 118.164062 182.988281 117.179688 Z M 191.695312 117.140625 C 191.695312 116.113281 192.523438 115.328125 193.507812 115.328125 C 194.492188 115.328125 195.320312 116.113281 195.320312 117.140625 C 195.320312 118.164062 194.492188 118.953125 193.507812 118.953125 C 193.507812 118.953125 193.507812 118.953125 193.46875 118.953125 C 192.523438 118.953125 191.695312 118.125 191.695312 117.140625 Z M 191.695312 117.140625 " fill-opacity="1" fill-rule="nonzero"/></g><g clip-path="url(#84c6fc02b6)"><path fill="#ffa0a5" d="M 202.253906 118.910156 C 201.78125 118.910156 201.308594 118.714844 200.953125 118.359375 C 200.875 118.28125 200.796875 118.164062 200.714844 118.085938 C 200.636719 118.007812 200.597656 117.886719 200.558594 117.769531 C 200.519531 117.652344 200.480469 117.535156 200.441406 117.414062 C 200.402344 117.296875 200.402344 117.179688 200.402344 117.058594 C 200.402344 116.585938 200.597656 116.113281 200.953125 115.761719 C 201.660156 115.089844 202.84375 115.089844 203.550781 115.761719 C 203.90625 116.113281 204.066406 116.585938 204.066406 117.058594 C 204.066406 117.179688 204.066406 117.296875 204.023438 117.414062 C 203.984375 117.535156 203.945312 117.652344 203.90625 117.769531 C 203.867188 117.886719 203.789062 118.007812 203.75 118.085938 C 203.671875 118.164062 203.59375 118.28125 203.511719 118.359375 C 203.199219 118.714844 202.726562 118.910156 202.253906 118.910156 Z M 202.253906 118.910156 " fill-opacity="1" fill-rule="nonzero"/></g><path fill="#ffa0a5" d="M 114.957031 128.996094 C 114.484375 128.996094 114.011719 128.800781 113.65625 128.445312 C 113.304688 128.089844 113.144531 127.617188 113.144531 127.144531 C 113.144531 126.671875 113.34375 126.199219 113.695312 125.84375 C 114.367188 125.175781 115.589844 125.175781 116.257812 125.84375 C 116.613281 126.199219 116.769531 126.671875 116.769531 127.144531 C 116.769531 127.617188 116.574219 128.089844 116.21875 128.445312 C 115.941406 128.800781 115.46875 128.996094 114.957031 128.996094 Z M 114.957031 128.996094 " fill-opacity="1" fill-rule="nonzero"/><path fill="#ffa0a5" d="M 121.890625 127.144531 C 121.890625 126.121094 122.71875 125.332031 123.703125 125.332031 C 124.726562 125.332031 125.515625 126.160156 125.515625 127.144531 C 125.515625 128.167969 124.6875 128.957031 123.703125 128.996094 C 123.703125 128.996094 123.703125 128.996094 123.664062 128.996094 C 122.679688 128.957031 121.890625 128.128906 121.890625 127.144531 Z M 130.597656 127.105469 C 130.597656 126.082031 131.425781 125.292969 132.410156 125.253906 C 133.433594 125.253906 134.222656 126.082031 134.261719 127.066406 C 134.261719 128.089844 133.433594 128.878906 132.449219 128.878906 C 131.425781 128.917969 130.597656 128.089844 130.597656 127.105469 Z M 139.300781 127.066406 C 139.300781 126.042969 140.128906 125.253906 141.113281 125.214844 C 142.097656 125.214844 142.925781 126.042969 142.925781 127.027344 C 142.925781 128.050781 142.097656 128.839844 141.113281 128.839844 C 141.113281 128.839844 141.113281 128.839844 141.074219 128.839844 C 140.128906 128.878906 139.34375 128.050781 139.300781 127.066406 Z M 148.046875 127.027344 C 148.046875 126.042969 148.875 125.214844 149.859375 125.214844 C 150.882812 125.214844 151.671875 126.042969 151.710938 127.027344 C 151.710938 128.011719 150.882812 128.839844 149.898438 128.839844 C 148.875 128.839844 148.046875 128.011719 148.046875 127.027344 Z M 156.753906 126.988281 C 156.753906 126.003906 157.582031 125.175781 158.566406 125.175781 C 159.550781 125.175781 160.378906 126.003906 160.378906 126.988281 C 160.378906 127.972656 159.550781 128.800781 158.566406 128.800781 C 158.566406 128.800781 158.566406 128.800781 158.527344 128.800781 C 157.582031 128.800781 156.753906 127.972656 156.753906 126.988281 Z M 165.5 126.949219 C 165.5 125.964844 166.328125 125.136719 167.3125 125.136719 C 168.335938 125.136719 169.125 125.964844 169.164062 126.949219 C 169.164062 127.933594 168.335938 128.761719 167.351562 128.761719 C 166.285156 128.761719 165.5 127.972656 165.5 126.949219 Z M 174.203125 126.910156 C 174.203125 125.882812 175.03125 125.097656 176.015625 125.097656 C 177.042969 125.097656 177.828125 125.925781 177.828125 126.910156 C 177.828125 127.933594 177 128.722656 176.015625 128.761719 C 176.015625 128.761719 176.015625 128.761719 175.976562 128.761719 C 175.03125 128.722656 174.203125 127.933594 174.203125 126.910156 Z M 182.910156 126.871094 C 182.910156 125.84375 183.699219 125.058594 184.722656 125.058594 C 185.746094 125.058594 186.535156 125.882812 186.574219 126.871094 C 186.574219 127.894531 185.746094 128.679688 184.761719 128.722656 C 183.738281 128.679688 182.910156 127.894531 182.910156 126.871094 Z M 191.65625 126.828125 C 191.65625 125.804688 192.484375 125.019531 193.46875 125.019531 C 194.453125 125.019531 195.28125 125.804688 195.28125 126.828125 C 195.28125 127.855469 194.453125 128.640625 193.46875 128.640625 C 193.46875 128.640625 193.46875 128.640625 193.429688 128.640625 C 192.445312 128.640625 191.65625 127.855469 191.65625 126.828125 Z M 191.65625 126.828125 " fill-opacity="1" fill-rule="nonzero"/><path fill="#ffa0a5" d="M 114.917969 138.097656 C 114.445312 138.097656 113.972656 137.898438 113.617188 137.542969 C 113.265625 137.191406 113.105469 136.71875 113.105469 136.246094 C 113.105469 136.125 113.105469 136.007812 113.144531 135.890625 C 113.183594 135.773438 113.183594 135.652344 113.265625 135.535156 C 113.304688 135.417969 113.382812 135.300781 113.421875 135.222656 C 113.5 135.140625 113.578125 135.023438 113.65625 134.945312 C 114.328125 134.273438 115.546875 134.273438 116.21875 134.945312 C 116.296875 135.023438 116.375 135.140625 116.453125 135.222656 C 116.535156 135.300781 116.574219 135.417969 116.613281 135.535156 C 116.652344 135.652344 116.691406 135.773438 116.730469 135.890625 C 116.769531 136.007812 116.769531 136.125 116.769531 136.246094 C 116.769531 136.71875 116.574219 137.191406 116.21875 137.542969 C 115.863281 137.898438 115.390625 138.097656 114.917969 138.097656 Z M 114.917969 138.097656 " fill-opacity="1" fill-rule="nonzero"/><path fill="#ffa0a5" d="M 184.683594 134.15625 C 183.660156 134.15625 182.871094 134.984375 182.871094 135.96875 C 182.871094 136.953125 183.660156 137.78125 184.683594 137.78125 C 185.707031 137.78125 186.496094 136.953125 186.496094 135.929688 C 186.496094 134.984375 185.667969 134.15625 184.683594 134.15625 Z M 184.683594 134.15625 " fill-opacity="1" fill-rule="nonzero"/><path fill="#ffa0a5" d="M 141.074219 134.355469 C 140.050781 134.355469 139.261719 135.179688 139.261719 136.207031 C 139.261719 137.191406 140.089844 138.019531 141.074219 138.019531 L 141.113281 138.019531 C 142.097656 138.019531 142.925781 137.191406 142.925781 136.207031 C 142.886719 135.140625 142.058594 134.355469 141.074219 134.355469 Z M 141.074219 134.355469 " fill-opacity="1" fill-rule="nonzero"/><path fill="#ffa0a5" d="M 149.78125 134.316406 C 148.796875 134.316406 147.96875 135.140625 147.96875 136.167969 C 147.96875 137.152344 148.796875 137.976562 149.78125 137.976562 C 150.804688 137.976562 151.59375 137.152344 151.59375 136.167969 C 151.632812 135.101562 150.804688 134.316406 149.78125 134.316406 Z M 149.78125 134.316406 " fill-opacity="1" fill-rule="nonzero"/><path fill="#ffa0a5" d="M 123.625 134.433594 C 122.601562 134.433594 121.8125 135.261719 121.8125 136.246094 C 121.8125 137.230469 122.640625 138.058594 123.625 138.058594 L 123.664062 138.058594 C 124.648438 138.058594 125.476562 137.230469 125.476562 136.246094 C 125.476562 135.222656 124.648438 134.433594 123.625 134.433594 Z M 123.625 134.433594 " fill-opacity="1" fill-rule="nonzero"/><path fill="#ffa0a5" d="M 132.371094 134.394531 C 131.382812 134.394531 130.558594 135.222656 130.558594 136.246094 C 130.558594 137.230469 131.382812 138.058594 132.371094 138.058594 C 133.394531 138.058594 134.179688 137.230469 134.179688 136.246094 C 134.179688 135.179688 133.355469 134.394531 132.371094 134.394531 Z M 132.371094 134.394531 " fill-opacity="1" fill-rule="nonzero"/><path fill="#ffa0a5" d="M 158.527344 134.273438 C 157.503906 134.273438 156.714844 135.101562 156.714844 136.085938 C 156.714844 137.070312 157.542969 137.898438 158.527344 137.898438 L 158.566406 137.898438 C 159.550781 137.898438 160.378906 137.070312 160.378906 136.085938 C 160.339844 135.0625 159.511719 134.273438 158.527344 134.273438 Z M 158.527344 134.273438 " fill-opacity="1" fill-rule="nonzero"/><path fill="#ffa0a5" d="M 175.9375 134.195312 C 174.914062 134.195312 174.125 135.023438 174.125 136.007812 C 174.125 136.992188 174.953125 137.820312 175.9375 137.820312 L 175.976562 137.820312 C 176.960938 137.820312 177.789062 136.992188 177.789062 135.96875 C 177.789062 135.023438 176.960938 134.195312 175.9375 134.195312 Z M 175.9375 134.195312 " fill-opacity="1" fill-rule="nonzero"/><path fill="#ffa0a5" d="M 167.230469 134.234375 C 166.246094 134.234375 165.421875 135.0625 165.421875 136.046875 C 165.421875 137.03125 166.246094 137.859375 167.230469 137.859375 C 168.257812 137.859375 169.042969 137.03125 169.042969 136.007812 C 169.042969 135.0625 168.257812 134.234375 167.230469 134.234375 Z M 167.230469 134.234375 " fill-opacity="1" fill-rule="nonzero"/><g clip-path="url(#ed29a80356)"><path fill="#ffa0a5" d="M 114.839844 148.417969 C 114.367188 148.417969 113.894531 148.21875 113.539062 147.867188 C 113.460938 147.785156 113.382812 147.667969 113.304688 147.589844 C 113.222656 147.511719 113.183594 147.394531 113.144531 147.273438 C 113.105469 147.15625 113.066406 147.039062 113.027344 146.921875 C 112.988281 146.800781 112.988281 146.683594 112.988281 146.566406 C 112.988281 146.449219 112.988281 146.328125 113.027344 146.210938 C 113.066406 146.09375 113.066406 145.976562 113.144531 145.855469 C 113.183594 145.738281 113.265625 145.621094 113.304688 145.542969 C 113.382812 145.460938 113.460938 145.34375 113.539062 145.265625 C 113.972656 144.832031 114.601562 144.675781 115.195312 144.792969 C 115.3125 144.792969 115.429688 144.832031 115.546875 144.910156 C 115.667969 144.949219 115.785156 145.03125 115.863281 145.070312 C 115.980469 145.148438 116.0625 145.226562 116.140625 145.304688 C 116.21875 145.382812 116.296875 145.503906 116.375 145.582031 C 116.453125 145.660156 116.496094 145.777344 116.535156 145.894531 C 116.574219 146.015625 116.613281 146.132812 116.652344 146.25 C 116.691406 146.367188 116.691406 146.488281 116.691406 146.605469 C 116.691406 146.722656 116.691406 146.839844 116.652344 146.960938 C 116.613281 147.078125 116.574219 147.195312 116.535156 147.3125 C 116.496094 147.433594 116.414062 147.550781 116.375 147.628906 C 116.296875 147.746094 116.21875 147.828125 116.140625 147.90625 C 116.0625 147.984375 115.941406 148.0625 115.863281 148.140625 C 115.785156 148.21875 115.667969 148.261719 115.546875 148.300781 C 115.429688 148.339844 115.3125 148.378906 115.195312 148.378906 C 115.074219 148.417969 114.957031 148.417969 114.839844 148.417969 Z M 114.839844 148.417969 " fill-opacity="1" fill-rule="nonzero"/></g><path fill="#ffa0a5" d="M 140.996094 144.675781 C 139.972656 144.675781 139.183594 145.503906 139.183594 146.527344 C 139.183594 147.511719 140.011719 148.339844 140.996094 148.339844 L 141.035156 148.339844 C 142.019531 148.339844 142.847656 147.511719 142.847656 146.527344 C 142.808594 145.460938 142.019531 144.675781 140.996094 144.675781 Z M 140.996094 144.675781 " fill-opacity="1" fill-rule="nonzero"/><path fill="#ffa0a5" d="M 149.703125 144.636719 C 148.71875 144.636719 147.890625 145.460938 147.890625 146.488281 C 147.890625 147.472656 148.71875 148.300781 149.703125 148.300781 C 150.726562 148.300781 151.515625 147.472656 151.515625 146.488281 C 151.554688 145.421875 150.726562 144.636719 149.703125 144.636719 Z M 149.703125 144.636719 " fill-opacity="1" fill-rule="nonzero"/><path fill="#ffa0a5" d="M 123.546875 144.753906 C 122.519531 144.753906 121.734375 145.582031 121.734375 146.566406 C 121.734375 147.550781 122.5625 148.378906 123.546875 148.378906 L 123.585938 148.378906 C 124.570312 148.378906 125.398438 147.550781 125.398438 146.566406 C 125.398438 145.542969 124.570312 144.753906 123.546875 144.753906 Z M 123.546875 144.753906 " fill-opacity="1" fill-rule="nonzero"/><path fill="#ffa0a5" d="M 132.289062 144.714844 C 131.304688 144.714844 130.480469 145.542969 130.480469 146.566406 C 130.480469 147.550781 131.304688 148.378906 132.289062 148.378906 C 133.316406 148.378906 134.101562 147.550781 134.101562 146.566406 C 134.101562 145.503906 133.277344 144.714844 132.289062 144.714844 Z M 132.289062 144.714844 " fill-opacity="1" fill-rule="nonzero"/><path fill="#ffa0a5" d="M 167.152344 144.558594 C 166.167969 144.558594 165.339844 145.382812 165.339844 146.367188 C 165.339844 147.355469 166.167969 148.179688 167.152344 148.179688 C 168.175781 148.179688 168.964844 147.355469 168.964844 146.367188 C 169.003906 145.382812 168.175781 144.558594 167.152344 144.558594 Z M 167.152344 144.558594 " fill-opacity="1" fill-rule="nonzero"/><path fill="#ffa0a5" d="M 158.449219 144.597656 C 157.421875 144.597656 156.636719 145.421875 156.636719 146.410156 C 156.636719 147.394531 157.460938 148.21875 158.449219 148.21875 L 158.488281 148.21875 C 159.472656 148.21875 160.300781 147.394531 160.300781 146.410156 C 160.257812 145.421875 159.433594 144.597656 158.449219 144.597656 Z M 158.449219 144.597656 " fill-opacity="1" fill-rule="nonzero"/><path fill="#ffa0a5" d="M 175.898438 144.515625 C 174.875 144.515625 174.085938 145.34375 174.085938 146.328125 C 174.085938 147.3125 174.914062 148.140625 175.898438 148.140625 L 175.9375 148.140625 C 176.921875 148.140625 177.75 147.3125 177.75 146.289062 C 177.710938 145.34375 176.882812 144.515625 175.898438 144.515625 Z M 175.898438 144.515625 " fill-opacity="1" fill-rule="nonzero"/><g clip-path="url(#0f09ab95ac)"><path fill="#ffa0a5" d="M 114.761719 158.148438 C 114.644531 158.148438 114.523438 158.148438 114.40625 158.109375 C 114.289062 158.070312 114.171875 158.027344 114.050781 157.988281 C 113.933594 157.949219 113.855469 157.871094 113.738281 157.832031 C 113.65625 157.753906 113.539062 157.675781 113.460938 157.597656 C 113.382812 157.515625 113.304688 157.398438 113.222656 157.320312 C 113.144531 157.242188 113.105469 157.125 113.066406 157.003906 C 113.027344 156.886719 112.988281 156.769531 112.949219 156.652344 C 112.910156 156.53125 112.910156 156.414062 112.910156 156.296875 C 112.910156 155.824219 113.105469 155.351562 113.460938 154.996094 C 113.539062 154.917969 113.65625 154.839844 113.738281 154.757812 C 113.855469 154.679688 113.933594 154.640625 114.050781 154.601562 C 114.171875 154.5625 114.289062 154.523438 114.40625 154.484375 C 114.996094 154.367188 115.628906 154.5625 116.0625 154.996094 C 116.414062 155.351562 116.574219 155.824219 116.574219 156.296875 C 116.574219 156.414062 116.574219 156.53125 116.535156 156.652344 C 116.496094 156.769531 116.453125 156.886719 116.414062 157.003906 C 116.375 157.125 116.296875 157.242188 116.257812 157.320312 C 116.179688 157.4375 116.101562 157.515625 116.019531 157.597656 C 115.707031 157.949219 115.234375 158.148438 114.761719 158.148438 Z M 114.761719 158.148438 " fill-opacity="1" fill-rule="nonzero"/></g><path fill="#ffa0a5" d="M 149.664062 154.367188 C 148.679688 154.367188 147.851562 155.191406 147.851562 156.179688 C 147.851562 157.164062 148.679688 157.988281 149.664062 157.988281 C 150.6875 157.988281 151.476562 157.164062 151.476562 156.179688 C 151.476562 155.152344 150.648438 154.367188 149.664062 154.367188 Z M 149.664062 154.367188 " fill-opacity="1" fill-rule="nonzero"/><path fill="#ffa0a5" d="M 140.917969 154.40625 C 139.894531 154.40625 139.105469 155.230469 139.105469 156.257812 C 139.105469 157.242188 139.933594 158.070312 140.917969 158.070312 L 140.957031 158.070312 C 141.941406 158.070312 142.769531 157.242188 142.769531 156.257812 C 142.769531 155.191406 141.941406 154.367188 140.917969 154.40625 Z M 140.917969 154.40625 " fill-opacity="1" fill-rule="nonzero"/><path fill="#ffa0a5" d="M 132.210938 154.40625 C 131.226562 154.40625 130.398438 155.230469 130.398438 156.257812 C 130.398438 157.242188 131.226562 158.070312 132.210938 158.070312 C 133.234375 158.070312 134.023438 157.242188 134.023438 156.257812 C 134.023438 155.230469 133.234375 154.40625 132.210938 154.40625 Z M 132.210938 154.40625 " fill-opacity="1" fill-rule="nonzero"/><path fill="#ffa0a5" d="M 123.507812 154.484375 C 122.480469 154.484375 121.695312 155.3125 121.695312 156.296875 C 121.695312 157.28125 122.519531 158.109375 123.507812 158.109375 L 123.546875 158.109375 C 124.53125 158.109375 125.359375 157.28125 125.359375 156.257812 C 125.316406 155.273438 124.492188 154.445312 123.507812 154.484375 Z M 123.507812 154.484375 " fill-opacity="1" fill-rule="nonzero"/><path fill="#ffa0a5" d="M 167.074219 154.285156 C 166.089844 154.285156 165.261719 155.113281 165.261719 156.097656 C 165.261719 157.082031 166.089844 157.910156 167.074219 157.910156 C 168.097656 157.910156 168.886719 157.082031 168.886719 156.058594 C 168.925781 155.074219 168.097656 154.285156 167.074219 154.285156 Z M 167.074219 154.285156 " fill-opacity="1" fill-rule="nonzero"/><path fill="#ffa0a5" d="M 158.367188 154.328125 C 157.34375 154.328125 156.558594 155.152344 156.558594 156.136719 C 156.558594 157.125 157.382812 157.949219 158.367188 157.949219 L 158.410156 157.949219 C 159.394531 157.949219 160.21875 157.125 160.21875 156.136719 C 160.179688 155.113281 159.394531 154.328125 158.367188 154.328125 Z M 158.367188 154.328125 " fill-opacity="1" fill-rule="nonzero"/><g clip-path="url(#aabcc8b2ea)"><path fill="#ffa0a5" d="M 114.683594 168.46875 C 114.5625 168.46875 114.445312 168.46875 114.328125 168.429688 C 114.210938 168.390625 114.089844 168.351562 113.972656 168.3125 C 113.855469 168.269531 113.777344 168.191406 113.65625 168.152344 C 113.578125 168.074219 113.460938 167.996094 113.382812 167.917969 C 113.027344 167.5625 112.871094 167.089844 112.871094 166.617188 C 112.871094 166.144531 113.066406 165.671875 113.421875 165.316406 C 113.5 165.238281 113.617188 165.160156 113.695312 165.082031 C 113.816406 165 113.894531 164.960938 114.011719 164.921875 C 114.128906 164.882812 114.25 164.84375 114.367188 164.804688 C 114.601562 164.765625 114.839844 164.765625 115.074219 164.804688 C 115.195312 164.804688 115.3125 164.84375 115.429688 164.921875 C 115.546875 164.960938 115.628906 165.042969 115.746094 165.082031 C 115.863281 165.160156 115.941406 165.238281 116.019531 165.316406 C 116.375 165.671875 116.535156 166.144531 116.535156 166.617188 C 116.535156 167.089844 116.335938 167.5625 115.980469 167.917969 C 115.902344 167.996094 115.785156 168.074219 115.707031 168.152344 C 115.628906 168.230469 115.507812 168.269531 115.390625 168.3125 C 115.273438 168.351562 115.15625 168.390625 115.035156 168.429688 C 114.917969 168.46875 114.800781 168.46875 114.683594 168.46875 Z M 114.683594 168.46875 " fill-opacity="1" fill-rule="nonzero"/></g><path fill="#ffa0a5" d="M 149.585938 164.6875 C 148.597656 164.6875 147.773438 165.515625 147.773438 166.539062 C 147.773438 167.523438 148.597656 168.351562 149.585938 168.351562 C 150.609375 168.351562 151.394531 167.523438 151.394531 166.539062 C 151.394531 165.472656 150.570312 164.6875 149.585938 164.6875 Z M 149.585938 164.6875 " fill-opacity="1" fill-rule="nonzero"/><path fill="#ffa0a5" d="M 140.878906 164.726562 C 139.855469 164.726562 139.066406 165.554688 139.066406 166.578125 C 139.066406 167.5625 139.894531 168.390625 140.878906 168.390625 L 140.917969 168.390625 C 141.902344 168.390625 142.730469 167.5625 142.730469 166.578125 C 142.691406 165.515625 141.863281 164.726562 140.878906 164.726562 Z M 140.878906 164.726562 " fill-opacity="1" fill-rule="nonzero"/><path fill="#ffa0a5" d="M 132.132812 164.765625 C 131.148438 164.765625 130.320312 165.59375 130.320312 166.617188 C 130.320312 167.601562 131.148438 168.429688 132.132812 168.429688 C 133.15625 168.429688 133.945312 167.601562 133.945312 166.617188 C 133.984375 165.554688 133.15625 164.765625 132.132812 164.765625 Z M 132.132812 164.765625 " fill-opacity="1" fill-rule="nonzero"/><path fill="#ffa0a5" d="M 123.425781 164.804688 C 122.402344 164.804688 121.617188 165.632812 121.617188 166.617188 C 121.617188 167.601562 122.441406 168.429688 123.425781 168.429688 L 123.464844 168.429688 C 124.453125 168.429688 125.277344 167.601562 125.277344 166.578125 C 125.238281 165.59375 124.414062 164.804688 123.425781 164.804688 Z M 123.425781 164.804688 " fill-opacity="1" fill-rule="nonzero"/><path fill="#ffa0a5" d="M 158.289062 164.648438 C 157.265625 164.648438 156.476562 165.472656 156.476562 166.460938 C 156.476562 167.445312 157.304688 168.269531 158.289062 168.269531 L 158.328125 168.269531 C 159.3125 168.269531 160.140625 167.445312 160.140625 166.460938 C 160.101562 165.433594 159.3125 164.648438 158.289062 164.648438 Z M 158.289062 164.648438 " fill-opacity="1" fill-rule="nonzero"/><g clip-path="url(#e28a871961)"><path fill="#ffa0a5" d="M 114.601562 179.417969 C 114.128906 179.417969 113.65625 179.222656 113.304688 178.867188 C 112.949219 178.511719 112.792969 178.039062 112.792969 177.566406 C 112.792969 177.09375 112.988281 176.621094 113.34375 176.269531 C 114.011719 175.597656 115.234375 175.597656 115.902344 176.269531 C 116.257812 176.621094 116.414062 177.09375 116.414062 177.566406 C 116.414062 178.039062 116.21875 178.511719 115.863281 178.867188 C 115.589844 179.222656 115.117188 179.417969 114.601562 179.417969 Z M 114.601562 179.417969 " fill-opacity="1" fill-rule="nonzero"/></g><path fill="#ffa0a5" d="M 149.503906 175.597656 C 148.519531 175.597656 147.695312 176.425781 147.695312 177.449219 C 147.695312 178.433594 148.519531 179.261719 149.503906 179.261719 C 150.53125 179.261719 151.316406 178.433594 151.316406 177.449219 C 151.316406 176.425781 150.492188 175.597656 149.503906 175.597656 Z M 149.503906 175.597656 " fill-opacity="1" fill-rule="nonzero"/><path fill="#ffa0a5" d="M 140.800781 175.636719 C 139.777344 175.636719 138.988281 176.464844 138.988281 177.488281 C 138.988281 178.472656 139.816406 179.300781 140.800781 179.300781 L 140.839844 179.300781 C 141.824219 179.300781 142.652344 178.472656 142.652344 177.488281 C 142.613281 176.464844 141.785156 175.636719 140.800781 175.636719 Z M 140.800781 175.636719 " fill-opacity="1" fill-rule="nonzero"/><path fill="#ffa0a5" d="M 132.054688 175.675781 C 131.070312 175.675781 130.242188 176.503906 130.242188 177.488281 C 130.242188 178.472656 131.070312 179.300781 132.054688 179.300781 C 133.078125 179.300781 133.867188 178.472656 133.867188 177.488281 C 133.90625 176.503906 133.078125 175.675781 132.054688 175.675781 Z M 132.054688 175.675781 " fill-opacity="1" fill-rule="nonzero"/><path fill="#ffa0a5" d="M 123.347656 175.714844 C 122.324219 175.714844 121.535156 176.542969 121.535156 177.527344 C 121.535156 178.511719 122.363281 179.339844 123.347656 179.339844 L 123.386719 179.339844 C 124.371094 179.339844 125.199219 178.511719 125.199219 177.488281 C 125.160156 176.542969 124.332031 175.714844 123.347656 175.714844 Z M 123.347656 175.714844 " fill-opacity="1" fill-rule="nonzero"/><g clip-path="url(#a8987bad9b)"><path fill="#ffa0a5" d="M 114.523438 190.332031 C 114.40625 190.332031 114.289062 190.332031 114.171875 190.292969 C 114.050781 190.253906 113.933594 190.214844 113.816406 190.175781 C 113.695312 190.132812 113.578125 190.054688 113.5 190.015625 C 113.421875 189.9375 113.304688 189.859375 113.222656 189.78125 C 112.871094 189.425781 112.710938 188.953125 112.710938 188.480469 C 112.710938 188.007812 112.910156 187.535156 113.265625 187.179688 C 113.34375 187.101562 113.460938 187.023438 113.539062 186.945312 C 113.617188 186.863281 113.738281 186.824219 113.855469 186.785156 C 113.972656 186.746094 114.089844 186.707031 114.210938 186.667969 C 114.800781 186.550781 115.429688 186.746094 115.863281 187.179688 C 115.941406 187.257812 116.019531 187.378906 116.101562 187.457031 C 116.179688 187.535156 116.21875 187.652344 116.257812 187.769531 C 116.296875 187.890625 116.335938 188.007812 116.375 188.125 C 116.414062 188.242188 116.414062 188.363281 116.414062 188.480469 C 116.414062 188.953125 116.21875 189.425781 115.863281 189.78125 C 115.507812 190.132812 115.035156 190.332031 114.523438 190.332031 Z M 114.523438 190.332031 " fill-opacity="1" fill-rule="nonzero"/></g><path fill="#ffa0a5" d="M 123.269531 186.667969 C 122.246094 186.667969 121.457031 187.496094 121.457031 188.480469 C 121.457031 189.464844 122.285156 190.292969 123.269531 190.292969 L 123.308594 190.292969 C 124.292969 190.292969 125.121094 189.464844 125.121094 188.480469 C 125.082031 187.457031 124.292969 186.667969 123.269531 186.667969 Z M 123.269531 186.667969 " fill-opacity="1" fill-rule="nonzero"/><path fill="#ffa0a5" d="M 131.976562 186.628906 C 130.992188 186.628906 130.164062 187.457031 130.164062 188.480469 C 130.164062 189.464844 130.992188 190.292969 131.976562 190.292969 C 133 190.292969 133.789062 189.464844 133.789062 188.480469 C 133.828125 187.417969 133 186.628906 131.976562 186.628906 Z M 131.976562 186.628906 " fill-opacity="1" fill-rule="nonzero"/><path fill="#ffa0a5" d="M 140.722656 186.589844 C 139.695312 186.589844 138.910156 187.417969 138.910156 188.441406 C 138.910156 189.425781 139.734375 190.253906 140.722656 190.253906 L 140.761719 190.253906 C 141.746094 190.253906 142.574219 189.425781 142.574219 188.441406 C 142.53125 187.378906 141.707031 186.589844 140.722656 186.589844 Z M 140.722656 186.589844 " fill-opacity="1" fill-rule="nonzero"/><g clip-path="url(#7613d76517)"><path fill="#ffa0a5" d="M 114.484375 201.28125 C 114.011719 201.28125 113.539062 201.085938 113.183594 200.730469 C 113.105469 200.652344 113.027344 200.535156 112.949219 200.457031 C 112.871094 200.375 112.832031 200.257812 112.792969 200.140625 C 112.75 200.023438 112.710938 199.902344 112.671875 199.785156 C 112.632812 199.667969 112.632812 199.550781 112.632812 199.429688 C 112.632812 199.3125 112.632812 199.195312 112.671875 199.078125 C 112.710938 198.957031 112.710938 198.839844 112.792969 198.722656 C 112.832031 198.605469 112.910156 198.484375 112.949219 198.40625 C 113.027344 198.328125 113.105469 198.210938 113.183594 198.132812 C 113.265625 198.050781 113.382812 197.972656 113.460938 197.894531 C 113.578125 197.816406 113.65625 197.777344 113.777344 197.738281 C 113.894531 197.699219 114.011719 197.660156 114.128906 197.621094 C 114.367188 197.578125 114.601562 197.578125 114.839844 197.621094 C 114.957031 197.621094 115.074219 197.660156 115.195312 197.738281 C 115.3125 197.777344 115.390625 197.855469 115.507812 197.894531 C 115.628906 197.972656 115.707031 198.050781 115.785156 198.132812 C 115.863281 198.210938 115.941406 198.328125 116.019531 198.40625 C 116.101562 198.484375 116.140625 198.605469 116.179688 198.722656 C 116.21875 198.839844 116.257812 198.957031 116.296875 199.078125 C 116.335938 199.195312 116.335938 199.3125 116.335938 199.429688 C 116.335938 199.550781 116.335938 199.667969 116.296875 199.785156 C 116.257812 199.902344 116.21875 200.023438 116.179688 200.140625 C 116.140625 200.257812 116.0625 200.375 116.019531 200.457031 C 115.941406 200.574219 115.863281 200.652344 115.785156 200.730469 C 115.429688 201.085938 114.957031 201.28125 114.484375 201.28125 Z M 114.484375 201.28125 " fill-opacity="1" fill-rule="nonzero"/></g><path fill="#ffa0a5" d="M 131.898438 197.539062 C 130.910156 197.539062 130.085938 198.367188 130.085938 199.390625 C 130.085938 200.375 130.910156 201.203125 131.898438 201.203125 C 132.921875 201.203125 133.707031 200.375 133.707031 199.390625 C 133.75 198.367188 132.921875 197.539062 131.898438 197.539062 Z M 131.898438 197.539062 " fill-opacity="1" fill-rule="nonzero"/><path fill="#ffa0a5" d="M 123.191406 197.578125 C 122.167969 197.578125 121.378906 198.40625 121.378906 199.390625 C 121.378906 200.375 122.207031 201.203125 123.191406 201.203125 L 123.230469 201.203125 C 124.214844 201.203125 125.042969 200.375 125.042969 199.390625 C 125.042969 198.40625 124.214844 197.578125 123.191406 197.578125 Z M 123.191406 197.578125 " fill-opacity="1" fill-rule="nonzero"/><g clip-path="url(#2231beecf0)"><path fill="#ffa0a5" d="M 114.40625 210.972656 C 113.933594 210.972656 113.460938 210.777344 113.105469 210.421875 C 113.027344 210.34375 112.949219 210.226562 112.871094 210.144531 C 112.792969 210.066406 112.75 209.949219 112.710938 209.832031 C 112.671875 209.710938 112.632812 209.59375 112.59375 209.476562 C 112.554688 209.359375 112.554688 209.238281 112.554688 209.121094 C 112.554688 209.003906 112.554688 208.886719 112.59375 208.765625 C 112.632812 208.648438 112.632812 208.53125 112.710938 208.414062 C 112.75 208.292969 112.832031 208.175781 112.871094 208.097656 C 112.949219 208.019531 113.027344 207.902344 113.105469 207.820312 C 113.183594 207.742188 113.304688 207.664062 113.382812 207.585938 C 113.5 207.507812 113.578125 207.46875 113.695312 207.429688 C 113.816406 207.386719 113.933594 207.347656 114.050781 207.308594 C 114.289062 207.269531 114.523438 207.269531 114.761719 207.308594 C 114.878906 207.308594 114.996094 207.347656 115.117188 207.429688 C 115.234375 207.46875 115.3125 207.546875 115.429688 207.585938 C 115.546875 207.664062 115.628906 207.742188 115.707031 207.820312 C 115.785156 207.902344 115.863281 208.019531 115.941406 208.097656 C 116.019531 208.175781 116.0625 208.292969 116.101562 208.414062 C 116.140625 208.53125 116.179688 208.648438 116.21875 208.765625 C 116.257812 208.886719 116.257812 209.003906 116.257812 209.121094 C 116.257812 209.238281 116.257812 209.359375 116.21875 209.476562 C 116.179688 209.59375 116.140625 209.710938 116.101562 209.832031 C 116.0625 209.949219 115.980469 210.066406 115.941406 210.144531 C 115.863281 210.265625 115.785156 210.34375 115.707031 210.421875 C 115.351562 210.816406 114.878906 210.972656 114.40625 210.972656 Z M 114.40625 210.972656 " fill-opacity="1" fill-rule="nonzero"/></g><path fill="#ffa0a5" d="M 123.113281 207.308594 C 122.089844 207.308594 121.300781 208.136719 121.300781 209.121094 C 121.300781 210.105469 122.128906 210.933594 123.113281 210.933594 L 123.152344 210.933594 C 124.136719 210.933594 124.964844 210.105469 124.964844 209.121094 C 124.964844 208.097656 124.136719 207.308594 123.113281 207.308594 Z M 123.113281 207.308594 " fill-opacity="1" fill-rule="nonzero"/><g clip-path="url(#7d4641567b)"><path fill="#ffa0a5" d="M 114.328125 221.292969 C 113.855469 221.292969 113.382812 221.097656 113.027344 220.742188 C 112.949219 220.664062 112.871094 220.546875 112.792969 220.46875 C 112.710938 220.386719 112.671875 220.269531 112.632812 220.152344 C 112.59375 220.035156 112.554688 219.914062 112.515625 219.796875 C 112.515625 219.71875 112.515625 219.601562 112.515625 219.480469 C 112.515625 219.363281 112.515625 219.246094 112.554688 219.128906 C 112.59375 219.007812 112.59375 218.890625 112.671875 218.773438 C 112.710938 218.65625 112.792969 218.535156 112.832031 218.457031 C 112.910156 218.378906 112.988281 218.261719 113.066406 218.183594 C 113.144531 218.105469 113.265625 218.023438 113.34375 217.945312 C 113.460938 217.867188 113.539062 217.828125 113.65625 217.789062 C 113.777344 217.75 113.894531 217.710938 114.011719 217.671875 C 114.25 217.628906 114.484375 217.628906 114.722656 217.671875 C 114.839844 217.671875 114.957031 217.710938 115.074219 217.789062 C 115.195312 217.828125 115.273438 217.90625 115.390625 217.945312 C 115.507812 218.023438 115.589844 218.105469 115.667969 218.183594 C 115.746094 218.261719 115.824219 218.378906 115.902344 218.457031 C 115.980469 218.535156 116.019531 218.65625 116.0625 218.773438 C 116.101562 218.890625 116.140625 219.007812 116.179688 219.128906 C 116.21875 219.246094 116.21875 219.363281 116.21875 219.480469 C 116.21875 219.601562 116.21875 219.71875 116.179688 219.835938 C 116.140625 219.953125 116.101562 220.074219 116.0625 220.191406 C 116.019531 220.308594 115.941406 220.425781 115.902344 220.507812 C 115.824219 220.625 115.746094 220.703125 115.667969 220.78125 C 115.273438 221.136719 114.800781 221.332031 114.328125 221.292969 Z M 114.328125 221.292969 " fill-opacity="1" fill-rule="nonzero"/></g><path fill="#92e4eb" d="M 138.398438 119.777344 L 213.792969 119.777344 L 213.792969 139.949219 L 138.398438 139.949219 Z M 138.398438 119.777344 " fill-opacity="1" fill-rule="nonzero"/><g clip-path="url(#44deca32ec)"><path fill="#5ce1e6" d="M 230.101562 172.960938 L 230.101562 178.671875 C 245.703125 183.714844 257.007812 198.367188 257.007812 215.621094 C 257.007812 237.050781 239.597656 254.464844 218.167969 254.464844 C 202.765625 254.464844 189.410156 245.441406 183.148438 232.402344 L 177.160156 232.402344 C 183.777344 248.515625 199.652344 259.898438 218.167969 259.898438 C 242.589844 259.898438 262.484375 240.007812 262.484375 215.582031 C 262.484375 195.335938 248.738281 178.199219 230.101562 172.960938 Z M 230.101562 172.960938 " fill-opacity="1" fill-rule="nonzero"/></g></svg>